<svg id="shampoo_1_" data-name="shampoo (1)" xmlns="http://www.w3.org/2000/svg" width="12.643" height="15.349" viewBox="0 0 12.643 15.349">
  <path id="Tracé_8298" data-name="Tracé 8298" d="M95.5,97.45a.45.45,0,0,0-.45-.45h-3.6a.45.45,0,0,0-.45.45v.9h4.5Z" transform="translate(-89.801 -94.092)"/>
  <path id="Tracé_8299" data-name="Tracé 8299" d="M101.45.9h.375V2.009h2.248V.9h1.033l.466.7a.45.45,0,0,0,.748-.5l-.6-.9a.45.45,0,0,0-.374-.2h-3.9a.45.45,0,0,0,0,.9Z" transform="translate(-99.501 0)"/>
  <path id="Tracé_8300" data-name="Tracé 8300" d="M51,307h3v3.6H51Z" transform="translate(-51 -297.797)"/>
  <path id="Tracé_8301" data-name="Tracé 8301" d="M58.411,172.223a.449.449,0,0,0-.389-.223H51.45a.45.45,0,0,0-.45.45v.9h7.98A10.645,10.645,0,0,0,58.411,172.223Z" transform="translate(-51 -166.844)"/>
  <ellipse id="Ellipse_38" data-name="Ellipse 38" cx="1.756" cy="1.405" rx="1.756" ry="1.405" transform="translate(9.131 7.688)"/>
  <path id="Tracé_8302" data-name="Tracé 8302" d="M55.8,251.5a2.847,2.847,0,0,1,3.875-2.656A8.149,8.149,0,0,0,59.315,247H51v.9h3a.9.9,0,0,1,.9.9v3.6a.9.9,0,0,1-.9.9H51v1.2a.45.45,0,0,0,.45.45h6a.449.449,0,0,0,.367-.19q.161-.228.309-.458A2.853,2.853,0,0,1,55.8,251.5Z" transform="translate(-51 -239.595)"/>
  <path id="Tracé_8303" data-name="Tracé 8303" d="M244.759,333.229a1.949,1.949,0,1,0-1.811,2.669,1.687,1.687,0,0,0,.22-.015,1.632,1.632,0,0,0,1.279.614,1.649,1.649,0,0,0,.312-3.268Z" transform="translate(-235.304 -322.047)"/>
</svg>
