<svg id="pawprint" xmlns="http://www.w3.org/2000/svg" width="15.909" height="13.904" viewBox="0 0 15.909 13.904">
  <path id="Tracé_8286" data-name="Tracé 8286" d="M73.095,183.733a3.874,3.874,0,0,0-6.523,0l-1.725,2.691a2.452,2.452,0,0,0,3.051,3.568l.033-.014a4.82,4.82,0,0,1,3.838.014,2.439,2.439,0,0,0,.984.208,2.469,2.469,0,0,0,.549-.062,2.452,2.452,0,0,0,1.519-3.714Zm0,0" transform="translate(-62.456 -176.296)"/>
  <path id="Tracé_8287" data-name="Tracé 8287" d="M2.855,103.255a1.881,1.881,0,0,0,1.1-1.165,2.429,2.429,0,0,0-.043-1.675,2.431,2.431,0,0,0-1.092-1.272,1.881,1.881,0,0,0-1.594-.128,2.153,2.153,0,0,0-1.054,2.84,2.272,2.272,0,0,0,2.043,1.519A1.781,1.781,0,0,0,2.855,103.255Zm0,0" transform="translate(0 -95.822)"/>
  <path id="Tracé_8288" data-name="Tracé 8288" d="M126.75,5.326a2.518,2.518,0,0,0,2.337-2.662,2.357,2.357,0,1,0-4.674,0A2.518,2.518,0,0,0,126.75,5.326Zm0,0" transform="translate(-120.548 0)"/>
  <path id="Tracé_8289" data-name="Tracé 8289" d="M285.6,44.982h0a1.9,1.9,0,0,0,.6.1,2.422,2.422,0,0,0,2.2-1.735,2.611,2.611,0,0,0-.037-1.8,1.975,1.975,0,0,0-2.929-.973,2.611,2.611,0,0,0-1.108,1.421A2.31,2.31,0,0,0,285.6,44.982Zm0,0" transform="translate(-275.364 -39.002)"/>
  <path id="Tracé_8290" data-name="Tracé 8290" d="M380.189,171.408h0a2.29,2.29,0,0,0-2.7,3.652,1.827,1.827,0,0,0,1.1.354,2.363,2.363,0,0,0,1.866-.988A2.154,2.154,0,0,0,380.189,171.408Zm0,0" transform="translate(-365.029 -165.739)"/>
</svg>
