<svg id="ice-crystal" xmlns="http://www.w3.org/2000/svg" width="14.588" height="15.987" viewBox="0 0 14.588 15.987">
  <path id="Tracé_8475" data-name="Tracé 8475" d="M33.994,8.461l-2.908.779-1.121-.647V7.38l1.108-.636,2.92.783a.679.679,0,0,0,.351-1.313l-1.6-.429,1.476-.847a.679.679,0,1,0-.676-1.179l-1.479.849.429-1.6a.679.679,0,1,0-1.312-.352L30.4,5.562l-1.115.64L28.23,5.591V4.309l2.137-2.137a.679.679,0,0,0-.961-.961L28.23,2.387V.679a.68.68,0,0,0-1.359,0v1.7L25.7,1.211a.679.679,0,0,0-.961.961L26.871,4.3V5.6L25.822,6.2l-1.115-.64-.779-2.907a.679.679,0,1,0-1.312.352l.429,1.6-1.479-.849a.679.679,0,1,0-.676,1.179l1.476.847-1.6.429a.68.68,0,1,0,.351,1.313l2.921-.783,1.107.635V8.593l-1.121.648-2.908-.78a.679.679,0,1,0-.351,1.312l1.6.428-1.472.85a.679.679,0,0,0,.34,1.268.668.668,0,0,0,.339-.091l1.479-.854-.43,1.607a.68.68,0,0,0,.481.832.672.672,0,0,0,.176.023.68.68,0,0,0,.656-.5l.783-2.92,1.113-.642,1.047.6v1.312l-2.129,2.129a.679.679,0,0,0,.961.961l1.168-1.168v1.7a.68.68,0,0,0,1.359,0V13.6l1.176,1.176a.679.679,0,0,0,.961-.961L28.23,11.678v-1.3l1.056-.609,1.113.642.783,2.92a.679.679,0,1,0,1.312-.352l-.431-1.607,1.48.854a.669.669,0,0,0,.339.091.679.679,0,0,0,.34-1.268L32.75,10.2l1.6-.428a.679.679,0,0,0-.351-1.312Zm-5.387.132L27.555,9.2,26.5,8.593V7.378l1.052-.607,1.052.608Z" transform="translate(-20.26)"/>
</svg>
