<svg xmlns="http://www.w3.org/2000/svg" width="15.909" height="12.103" viewBox="0 0 15.909 12.103">
  <g id="wifi_1_" data-name="wifi (1)" transform="translate(0 0)">
    <g id="Groupe_578" data-name="Groupe 578" transform="translate(6.572 9.355)">
      <g id="Groupe_577" data-name="Groupe 577" transform="translate(0 0)">
        <path id="Tracé_8274" data-name="Tracé 8274" d="M210.9,358.88a1.374,1.374,0,1,0,1.379,1.374A1.378,1.378,0,0,0,210.9,358.88Z" transform="translate(-209.516 -358.88)"/>
      </g>
    </g>
    <g id="Groupe_580" data-name="Groupe 580" transform="translate(4.323 6.091)">
      <g id="Groupe_579" data-name="Groupe 579" transform="translate(0 0)">
        <path id="Tracé_8275" data-name="Tracé 8275" d="M144.8,256.225a4.764,4.764,0,0,0-6.721-.009.928.928,0,0,0,1.313,1.312,2.9,2.9,0,0,1,4.091.005.928.928,0,1,0,1.316-1.308Z" transform="translate(-137.808 -254.833)"/>
      </g>
    </g>
    <g id="Groupe_582" data-name="Groupe 582" transform="translate(0 0)">
      <g id="Groupe_581" data-name="Groupe 581">
        <path id="Tracé_8276" data-name="Tracé 8276" d="M15.638,63.84A10.893,10.893,0,0,0,.272,63.832a.928.928,0,0,0,1.314,1.31,9.028,9.028,0,0,1,12.736.006.928.928,0,1,0,1.315-1.309Z" transform="translate(0 -60.665)"/>
      </g>
    </g>
    <g id="Groupe_584" data-name="Groupe 584" transform="translate(2.216 3.122)">
      <g id="Groupe_583" data-name="Groupe 583">
        <path id="Tracé_8277" data-name="Tracé 8277" d="M81.834,162.46a7.75,7.75,0,0,0-10.934-.008.928.928,0,0,0,1.314,1.311,5.886,5.886,0,0,1,8.3.006.928.928,0,1,0,1.316-1.309Z" transform="translate(-70.628 -160.2)"/>
      </g>
    </g>
  </g>
</svg>
