<svg xmlns="http://www.w3.org/2000/svg" width="27.061" height="30.12" viewBox="0 0 27.061 30.12">
  <g id="office-building" transform="translate(0 0)">
    <path id="Tracé_8418" data-name="Tracé 8418" d="M52.473,7.06H41.3V.588A.588.588,0,0,0,40.707,0H26.588A.588.588,0,0,0,26,.588V29.532a.588.588,0,0,0,.588.588H52.473a.588.588,0,0,0,.588-.588V7.648A.588.588,0,0,0,52.473,7.06ZM41.3,8.236H51.885V23.061H41.3ZM31.883,28.944V24.237h3.53v4.706ZM36,23.061H31.295a.588.588,0,0,0-.588.588v5.295h-3.53V1.177H40.119V28.944h-3.53V23.649A.588.588,0,0,0,36,23.061ZM41.3,28.944V24.237H51.885v4.706Z" transform="translate(-26 0)"/>
    <path id="Tracé_8419" data-name="Tracé 8419" d="M136.587,42.354h1.176a.588.588,0,0,0,.588-.588V40.589a.588.588,0,0,0-.588-.588h-1.176a.588.588,0,0,0-.588.588v1.177A.588.588,0,0,0,136.587,42.354Z" transform="translate(-129.528 -37.648)"/>
    <path id="Tracé_8420" data-name="Tracé 8420" d="M136.587,112.354h1.176a.588.588,0,0,0,.588-.588v-1.177a.588.588,0,0,0-.588-.588h-1.176a.588.588,0,0,0-.588.588v1.177A.588.588,0,0,0,136.587,112.354Z" transform="translate(-129.528 -103.53)"/>
    <path id="Tracé_8421" data-name="Tracé 8421" d="M136.587,182.354h1.176a.588.588,0,0,0,.588-.588v-1.177a.588.588,0,0,0-.588-.588h-1.176a.588.588,0,0,0-.588.588v1.177A.588.588,0,0,0,136.587,182.354Z" transform="translate(-129.528 -169.412)"/>
    <path id="Tracé_8422" data-name="Tracé 8422" d="M136.587,252.353h1.176a.588.588,0,0,0,.588-.588v-1.177a.588.588,0,0,0-.588-.588h-1.176a.588.588,0,0,0-.588.588v1.177A.588.588,0,0,0,136.587,252.353Z" transform="translate(-129.528 -235.293)"/>
    <path id="Tracé_8423" data-name="Tracé 8423" d="M136.587,322.353h1.176a.588.588,0,0,0,.588-.588v-1.177a.588.588,0,0,0-.588-.588h-1.176a.588.588,0,0,0-.588.588v1.177A.588.588,0,0,0,136.587,322.353Z" transform="translate(-129.528 -301.175)"/>
    <path id="Tracé_8424" data-name="Tracé 8424" d="M66.589,42.354h1.176a.588.588,0,0,0,.588-.588V40.589A.588.588,0,0,0,67.766,40H66.589a.588.588,0,0,0-.588.588v1.177A.588.588,0,0,0,66.589,42.354Z" transform="translate(-63.648 -37.648)"/>
    <path id="Tracé_8425" data-name="Tracé 8425" d="M66.589,112.354h1.176a.588.588,0,0,0,.588-.588v-1.177a.588.588,0,0,0-.588-.588H66.589a.588.588,0,0,0-.588.588v1.177A.588.588,0,0,0,66.589,112.354Z" transform="translate(-63.648 -103.53)"/>
    <path id="Tracé_8426" data-name="Tracé 8426" d="M66.589,182.354h1.176a.588.588,0,0,0,.588-.588v-1.177a.588.588,0,0,0-.588-.588H66.589a.588.588,0,0,0-.588.588v1.177A.588.588,0,0,0,66.589,182.354Z" transform="translate(-63.648 -169.412)"/>
    <path id="Tracé_8427" data-name="Tracé 8427" d="M66.589,252.353h1.176a.588.588,0,0,0,.588-.588v-1.177a.588.588,0,0,0-.588-.588H66.589a.588.588,0,0,0-.588.588v1.177A.588.588,0,0,0,66.589,252.353Z" transform="translate(-63.648 -235.293)"/>
    <path id="Tracé_8428" data-name="Tracé 8428" d="M66.589,322.353h1.176a.588.588,0,0,0,.588-.588v-1.177a.588.588,0,0,0-.588-.588H66.589a.588.588,0,0,0-.588.588v1.177A.588.588,0,0,0,66.589,322.353Z" transform="translate(-63.648 -301.175)"/>
    <path id="Tracé_8429" data-name="Tracé 8429" d="M207.766,40h-1.176a.588.588,0,0,0-.588.588v1.177a.588.588,0,0,0,.588.588h1.176a.588.588,0,0,0,.588-.588V40.589A.588.588,0,0,0,207.766,40Z" transform="translate(-195.412 -37.648)"/>
    <path id="Tracé_8430" data-name="Tracé 8430" d="M207.766,110h-1.176a.588.588,0,0,0-.588.588v1.177a.588.588,0,0,0,.588.588h1.176a.588.588,0,0,0,.588-.588v-1.177A.588.588,0,0,0,207.766,110Z" transform="translate(-195.412 -103.529)"/>
    <path id="Tracé_8431" data-name="Tracé 8431" d="M207.766,180h-1.176a.588.588,0,0,0-.588.588v1.177a.588.588,0,0,0,.588.588h1.176a.588.588,0,0,0,.588-.588v-1.177A.588.588,0,0,0,207.766,180Z" transform="translate(-195.412 -169.411)"/>
    <path id="Tracé_8432" data-name="Tracé 8432" d="M207.766,250h-1.176a.588.588,0,0,0-.588.588v1.177a.588.588,0,0,0,.588.588h1.176a.588.588,0,0,0,.588-.588v-1.177A.588.588,0,0,0,207.766,250Z" transform="translate(-195.412 -235.293)"/>
    <path id="Tracé_8433" data-name="Tracé 8433" d="M207.766,320h-1.176a.588.588,0,0,0-.588.588v1.177a.588.588,0,0,0,.588.588h1.176a.588.588,0,0,0,.588-.588v-1.177A.588.588,0,0,0,207.766,320Z" transform="translate(-195.412 -301.175)"/>
    <path id="Tracé_8434" data-name="Tracé 8434" d="M392.765,180h-1.176a.588.588,0,0,0-.588.588v1.177a.588.588,0,0,0,.588.588h1.176a.588.588,0,0,0,.588-.588v-1.177A.588.588,0,0,0,392.765,180Z" transform="translate(-369.527 -169.411)"/>
    <path id="Tracé_8435" data-name="Tracé 8435" d="M392.765,250h-1.176a.588.588,0,0,0-.588.588v1.177a.588.588,0,0,0,.588.588h1.176a.588.588,0,0,0,.588-.588v-1.177A.588.588,0,0,0,392.765,250Z" transform="translate(-369.527 -235.293)"/>
    <path id="Tracé_8436" data-name="Tracé 8436" d="M392.765,320h-1.176a.588.588,0,0,0-.588.588v1.177a.588.588,0,0,0,.588.588h1.176a.588.588,0,0,0,.588-.588v-1.177A.588.588,0,0,0,392.765,320Z" transform="translate(-369.527 -301.175)"/>
    <path id="Tracé_8437" data-name="Tracé 8437" d="M322.767,180H321.59a.588.588,0,0,0-.588.588v1.177a.588.588,0,0,0,.588.588h1.176a.588.588,0,0,0,.588-.588v-1.177A.588.588,0,0,0,322.767,180Z" transform="translate(-303.647 -169.411)"/>
    <path id="Tracé_8438" data-name="Tracé 8438" d="M322.767,250H321.59a.588.588,0,0,0-.588.588v1.177a.588.588,0,0,0,.588.588h1.176a.588.588,0,0,0,.588-.588v-1.177A.588.588,0,0,0,322.767,250Z" transform="translate(-303.647 -235.293)"/>
    <path id="Tracé_8439" data-name="Tracé 8439" d="M322.767,320H321.59a.588.588,0,0,0-.588.588v1.177a.588.588,0,0,0,.588.588h1.176a.588.588,0,0,0,.588-.588v-1.177A.588.588,0,0,0,322.767,320Z" transform="translate(-303.647 -301.175)"/>
  </g>
</svg>
