<svg id="talking" xmlns="http://www.w3.org/2000/svg" width="30.061" height="30.061" viewBox="0 0 30.061 30.061">
  <path id="Tracé_8449" data-name="Tracé 8449" d="M203.045,249.523a3.523,3.523,0,1,0-3.523,3.523A3.527,3.527,0,0,0,203.045,249.523Zm-3.523,2.348a2.348,2.348,0,1,1,2.348-2.348A2.351,2.351,0,0,1,199.523,251.871Z" transform="translate(-184.492 -231.557)"/>
  <path id="Tracé_8450" data-name="Tracé 8450" d="M39.045,249.523a3.523,3.523,0,1,0-3.523,3.523A3.527,3.527,0,0,0,39.045,249.523Zm-3.523,2.348a2.348,2.348,0,1,1,2.348-2.348A2.351,2.351,0,0,1,35.523,251.871Z" transform="translate(-30.121 -231.557)"/>
  <path id="Tracé_8451" data-name="Tracé 8451" d="M367.045,249.523a3.523,3.523,0,1,0-3.523,3.523A3.527,3.527,0,0,0,367.045,249.523Zm-3.523,2.348a2.348,2.348,0,1,1,2.349-2.348A2.351,2.351,0,0,1,363.523,251.871Z" transform="translate(-338.864 -231.557)"/>
  <path id="Tracé_8452" data-name="Tracé 8452" d="M24.659,366a5.467,5.467,0,0,0-4.814,2.9,5.442,5.442,0,0,0-9.629,0A5.465,5.465,0,0,0,5.4,366,5.381,5.381,0,0,0,0,371.284v2.7a.587.587,0,0,0,.587.587H29.473a.587.587,0,0,0,.587-.587v-2.7A5.381,5.381,0,0,0,24.659,366Zm-9.629,1.174a4.226,4.226,0,0,1,4.227,4.11V373.4H10.8v-2.114A4.226,4.226,0,0,1,15.03,367.174Zm-13.856,4.11a4.229,4.229,0,0,1,8.455,0V373.4H1.174ZM28.886,373.4H20.432v-2.114a4.229,4.229,0,0,1,8.455,0Z" transform="translate(0 -344.511)"/>
  <path id="Tracé_8453" data-name="Tracé 8453" d="M227.761,60a1.761,1.761,0,1,0,1.761,1.761A1.763,1.763,0,0,0,227.761,60Zm0,2.348a.587.587,0,1,1,.587-.587A.588.588,0,0,1,227.761,62.348Z" transform="translate(-212.731 -56.477)"/>
  <path id="Tracé_8454" data-name="Tracé 8454" d="M146,61.761A1.761,1.761,0,1,0,147.761,60,1.763,1.763,0,0,0,146,61.761Zm2.348,0a.587.587,0,1,1-.587-.587A.588.588,0,0,1,148.348,61.761Z" transform="translate(-137.428 -56.477)"/>
  <path id="Tracé_8455" data-name="Tracé 8455" d="M309.523,61.761a1.761,1.761,0,1,0-1.761,1.761A1.763,1.763,0,0,0,309.523,61.761Zm-2.348,0a.587.587,0,1,1,.587.587A.588.588,0,0,1,307.174,61.761Z" transform="translate(-288.034 -56.477)"/>
  <ellipse id="Ellipse_48" data-name="Ellipse 48" cy="0.5" ry="0.5" transform="translate(15.426 0.06)"/>
  <path id="Tracé_8456" data-name="Tracé 8456" d="M58.965,9.747l-.636,1.462-.636-1.462a.587.587,0,0,0-.538-.353H51.284a4.11,4.11,0,1,1,0-8.22h4.4a.587.587,0,0,0,0-1.174h-4.4a5.284,5.284,0,1,0,0,10.568H56.77l1.021,2.348a.587.587,0,0,0,1.077,0l1.021-2.348h5.486A5.284,5.284,0,0,0,65.375,0h-4.4a.587.587,0,1,0,0,1.174h4.4a4.11,4.11,0,0,1,0,8.22H59.5A.587.587,0,0,0,58.965,9.747Z" transform="translate(-43.299)"/>
</svg>
