<svg id="check_1_" data-name="check (1)" xmlns="http://www.w3.org/2000/svg" width="22.294" height="22.294" viewBox="0 0 22.294 22.294">
  <path id="Tracé_8272" data-name="Tracé 8272" d="M103.979,64.6h0a.8.8,0,0,1-.616-.28l-4.229-4.593a.833.833,0,0,1,1.232-1.12l3.641,3.949L114.09,52.5a.812.812,0,0,1,1.176,0,.837.837,0,0,1,0,1.176l-10.7,10.671A.763.763,0,0,1,103.979,64.6Z" transform="translate(-93.616 -49.444)" fill="#00bbd3"/>
  <path id="Tracé_8273" data-name="Tracé 8273" d="M11.147,22.294A11.147,11.147,0,1,1,11.147,0a.825.825,0,0,1,.84.84.825.825,0,0,1-.84.84,9.467,9.467,0,1,0,9.467,9.467.84.84,0,0,1,1.68,0A11.176,11.176,0,0,1,11.147,22.294Z" fill="#3a2c51"/>
</svg>
