<svg xmlns="http://www.w3.org/2000/svg" width="24.5" height="22.75" viewBox="0 0 24.5 22.75">
  <path id="Icon_ionic-ios-star-outline" data-name="Icon ionic-ios-star-outline" d="M25.82,11.25H17.776l-2.445-7.3a.886.886,0,0,0-1.663,0l-2.445,7.3h-8.1a.878.878,0,0,0-.875.875.643.643,0,0,0,.016.148.841.841,0,0,0,.366.618L9.245,17.55,6.707,24.927a.878.878,0,0,0,.3.984.846.846,0,0,0,.492.213,1.072,1.072,0,0,0,.547-.2l6.453-4.6,6.453,4.6a1.025,1.025,0,0,0,.547.2.786.786,0,0,0,.487-.213.867.867,0,0,0,.3-.984L19.75,17.55l6.557-4.7.159-.137a.917.917,0,0,0,.284-.585A.926.926,0,0,0,25.82,11.25Zm-6.956,5.059a1.536,1.536,0,0,0-.558,1.739l1.646,4.8a.219.219,0,0,1-.334.252l-4.233-3.019a1.528,1.528,0,0,0-.891-.284,1.5,1.5,0,0,0-.886.284L9.376,23.09a.219.219,0,0,1-.334-.252l1.646-4.8a1.541,1.541,0,0,0-.563-1.75L5.7,13.17a.22.22,0,0,1,.126-.4h5.4a1.529,1.529,0,0,0,1.449-1.045L14.287,6.9a.22.22,0,0,1,.416,0l1.619,4.823A1.529,1.529,0,0,0,17.77,12.77h5.321a.216.216,0,0,1,.126.394Z" transform="translate(-2.25 -3.375)"/>
</svg>
