<svg xmlns="http://www.w3.org/2000/svg" width="23.648" height="23.648" viewBox="0 0 23.648 23.648">
  <path id="Tracé_8440" data-name="Tracé 8440" d="M72.965,9.322H72.5V8.858a.384.384,0,1,0-.767,0v.464H71.27a.384.384,0,0,0-.384.384v1.271a.04.04,0,0,1-.04.04H67.88a.384.384,0,0,0-.384.384v.464h-.464a.384.384,0,1,0,0,.767H67.5V13.1a.384.384,0,0,0,.384.384h2.966a.04.04,0,0,1,.04.04V20.3a.04.04,0,0,1-.04.04H63.219a.04.04,0,0,1-.04-.04V18.18A.384.384,0,0,0,62.8,17.8h-.464v-.464a.384.384,0,0,0-.767,0V17.8H61.1a.384.384,0,0,0-.384.384V20.3a.04.04,0,0,1-.04.04H53.05a.04.04,0,0,1-.04-.04v-6.78a.04.04,0,0,1,.04-.04h7.627a.04.04,0,0,1,.04.04V14.79a.384.384,0,0,0,.384.384h.464v.464a.384.384,0,0,0,.767,0v-.464H62.8a.384.384,0,0,0,.384-.384V13.519a.04.04,0,0,1,.04-.04H64.49a.384.384,0,0,0,.384-.384v-.464h.464a.384.384,0,0,0,0-.767h-.464V11.4a.384.384,0,0,0-.384-.384H63.219a.04.04,0,0,1-.04-.04V9.706a.384.384,0,0,0-.384-.384h-.464V8.858a.384.384,0,0,0-.767,0v.464H61.1a.384.384,0,0,0-.384.384v1.271a.04.04,0,0,1-.04.04H56.892a.384.384,0,0,0,0,.767h3.785a.808.808,0,0,0,.807-.807v-.888h.928v.888a.808.808,0,0,0,.807.807h.888v.928h-.888a.808.808,0,0,0-.807.807v.888h-.928v-.888a.808.808,0,0,0-.807-.807H53.05a.808.808,0,0,0-.807.807V20.3a.808.808,0,0,0,.807.807h7.627a.808.808,0,0,0,.807-.807V18.564h.928V20.3a.808.808,0,0,0,.807.807h7.627a.808.808,0,0,0,.807-.807v-6.78a.808.808,0,0,0-.807-.807H68.264v-.928h2.582a.808.808,0,0,0,.807-.807V10.09h.928v11.9a.04.04,0,0,1-.04.04H51.355a.04.04,0,0,1-.04-.04V.807a.04.04,0,0,1,.04-.04H67.96a.384.384,0,0,0,0-.767H51.355A.8.8,0,0,0,51.1.041.381.381,0,0,0,50.931,0h-.847a.384.384,0,0,0,0,.767h.466c0,.013,0,.027,0,.04V21.993c0,.014,0,.027,0,.04h-.466a.384.384,0,0,0,0,.767h.464v.464a.384.384,0,0,0,.767,0V22.8l.04,0H72.541l.04,0v.466a.384.384,0,0,0,.767,0v-.847a.381.381,0,0,0-.041-.172.8.8,0,0,0,.041-.252V9.706a.384.384,0,0,0-.384-.384Z" transform="translate(-49.7 0)" fill="#25282a"/>
</svg>
