<svg xmlns="http://www.w3.org/2000/svg" width="18.941" height="18.941" viewBox="0 0 18.941 18.941">
  <path id="Icon_awesome-phone" data-name="Icon awesome-phone" d="M18.252.91,14.4.022a.894.894,0,0,0-1.017.514L11.612,4.679a.886.886,0,0,0,.255,1.036L14.109,7.55a13.71,13.71,0,0,1-6.555,6.555L5.719,11.863a.887.887,0,0,0-1.036-.255L.54,13.384A.9.9,0,0,0,.022,14.4L.91,18.252a.888.888,0,0,0,.866.688A17.163,17.163,0,0,0,18.94,1.775.887.887,0,0,0,18.252.91Z" transform="translate(0.001 0.001)"/>
</svg>
