<svg id="Component_2_1" data-name="Component 2 – 1" xmlns="http://www.w3.org/2000/svg" width="107.78" height="25.559" viewBox="0 0 107.78 25.559">
  <g id="Group_520" data-name="Group 520">
    <rect id="Rectangle_1690" data-name="Rectangle 1690" width="3.297" height="3.297" transform="translate(13.901 10.604) rotate(-45)"/>
    <path id="Path_8229" data-name="Path 8229" d="M158.719,58.4l5.913-5.912a3.394,3.394,0,0,0,.994-2.4V46.828l-9.238,9.238L155.222,54.9l9.41-9.41a3.394,3.394,0,0,0,.994-2.4V39.834L152.891,52.569,151.725,51.4,164.632,38.5a3.394,3.394,0,0,0,.994-2.4V32.839L149.394,49.072,133.161,32.839V36.1a3.4,3.4,0,0,0,.994,2.4L153.063,57.4a3.392,3.392,0,0,0,2.4.994Z" transform="translate(-133.161 -32.839)"/>
    <path id="Path_8230" data-name="Path 8230" d="M133.161,53.94a3.4,3.4,0,0,0,.994,2.4l11.913,11.913a3.394,3.394,0,0,0,2.4.994h3.257L133.161,50.683Z" transform="translate(-133.161 -43.688)"/>
    <path id="Path_8231" data-name="Path 8231" d="M144.73,80.1,133.161,68.527v3.257a3.4,3.4,0,0,0,.994,2.4l4.919,4.918a3.394,3.394,0,0,0,2.4.994Z" transform="translate(-133.161 -54.538)"/>
  </g>
  <g id="Group_522" data-name="Group 522" transform="translate(39.192 18.249)">
    <path id="Path_8240" data-name="Path 8240" d="M112.965,131.726a14.177,14.177,0,0,1,2.538-.391c.148.063.209.263.209.682v4.993c0,.6.1,1.075.725,1.075h.609c-.311-.246-.3-.479-.3-.854v-5.007a1.247,1.247,0,0,0-.3-.907,13.918,13.918,0,0,1,3.072.409v-.842h-6.553Z" transform="translate(-93.363 -130.883)"/>
    <path id="Path_8241" data-name="Path 8241" d="M251.167,131.726a14.181,14.181,0,0,1,2.539-.391c.148.063.209.263.209.682v4.993c0,.6.1,1.075.725,1.075h.609c-.311-.246-.3-.479-.3-.854v-5.007a1.247,1.247,0,0,0-.3-.907,13.913,13.913,0,0,1,3.072.409v-.842h-6.553Z" transform="translate(-196.863 -130.883)"/>
    <path id="Path_8242" data-name="Path 8242" d="M294.638,137.23v-5.273c0-.6-.1-1.075-.725-1.075H293.3c.311.246.3.479.3.854v2.6h-3.335v-2.377c0-.6-.1-1.075-.725-1.075h-.609c.311.246.3.479.3.854v5.273c0,.6.1,1.075.725,1.075h.609c-.311-.246-.3-.479-.3-.854v-2.358H293.6v2.138c0,.6.1,1.075.725,1.075h.609C294.625,137.838,294.638,137.605,294.638,137.23Z" transform="translate(-226.348 -130.883)"/>
    <path id="Path_8243" data-name="Path 8243" d="M72.284,137.01v-5.052c0-.6-.1-1.075-.725-1.075h-.609c.311.246.3.479.3.854v5.493c0,.375.013.608-.3.854h4.622v-.835a26.355,26.355,0,0,1-3.363.39A2.1,2.1,0,0,0,72.284,137.01Z" transform="translate(-62.594 -130.883)"/>
    <path id="Path_8244" data-name="Path 8244" d="M192.83,137.6a4.892,4.892,0,0,1-.931-1.1,6.88,6.88,0,0,0-1.192-1.4,2.128,2.128,0,0,0,2-2.155c0-1.906-1.49-2.065-3.017-2.065h-2.33c.311.246.3.479.3.854v5.273c0,.6.1,1.075.725,1.075h.609c-.311-.246-.3-.479-.3-.854v-5.273a2.045,2.045,0,0,0-.079-.645h1.011c1.322,0,1.938.52,1.938,1.635,0,1.36-1.1,1.646-2.014,1.646a2.954,2.954,0,0,1-.308-.011v.482c.99.184,1.446,1.047,1.849,1.808.359.679.7,1.32,1.358,1.32a1.92,1.92,0,0,0,1.249-.4A1.164,1.164,0,0,1,192.83,137.6Z" transform="translate(-149.573 -130.883)"/>
    <path id="Path_8245" data-name="Path 8245" d="M155.458,130.883h-.609c.311.246.3.479.3.854v3.407c0,1.692-.588,2.587-1.7,2.587s-1.689-.894-1.689-2.587v-3.186c0-.6-.1-1.075-.725-1.075h-.609c.311.246.3.479.3.854v3.417c0,2.073.87,3.038,2.736,3.038s2.725-.966,2.725-3.038v-3.2C156.183,131.36,156.084,130.883,155.458,130.883Z" transform="translate(-121.701 -130.883)"/>
    <path id="Path_8246" data-name="Path 8246" d="M38.827,136.991l-2.346-6.108H35.092c.309.244.16.575.015.975l-2.268,6.227h.876l.833-2.52h2.595l.8,2.112a.632.632,0,0,0,.591.409h.921A2.565,2.565,0,0,1,38.827,136.991Zm-4.093-1.965,1.034-3.121,1.17,3.121Z" transform="translate(-32.839 -130.883)"/>
    <path id="Path_8247" data-name="Path 8247" d="M227.064,136.991l-2.346-6.108h-1.389c.309.244.161.575.015.975l-2.268,6.227h.875l.833-2.52h2.6l.8,2.112a.632.632,0,0,0,.591.409h.921A2.564,2.564,0,0,1,227.064,136.991Zm-4.093-1.965L224,131.905l1.17,3.121Z" transform="translate(-175.022 -130.883)"/>
  </g>
  <g id="Group_525" data-name="Group 525" transform="translate(46.112)">
    <path id="Path_8248" data-name="Path 8248" d="M49.165,148.872c-.391-.31-.375-.6-.375-1.075v-3.509c0-.472-.016-.765.375-1.075H48.4c-.787,0-.912.6-.912,1.352v2.955a2.835,2.835,0,0,0,.075.732H36.8c-1.686,0-2.282-.61-2.282-1.978v-1.709c0-.752-.125-1.352-.912-1.352h-.766c.391.31.375.6.375,1.075v1.986c0,2.4,1.718,2.6,3.639,2.6Z" transform="translate(-32.839 -139.811)"/>
    <path id="Path_8249" data-name="Path 8249" d="M142.769,139.944c-.391-.31-.375-.6-.375-1.075v-6.911c0-.472-.016-.765.375-1.075H142c-.787,0-.912.6-.912,1.352v6.357a2.849,2.849,0,0,0,.075.733h-3.3c-1.686,0-2.438-.61-2.438-1.979V135.36c0-.472-.016-.765.375-1.075h-.766c-.787,0-.912.6-.912,1.352v2.9c0,.361-.056.791-.323.791H120.811c-1.685,0-2.436-.609-2.438-1.974v-1.99c0-.472-.016-.765.375-1.075h-.766c-.787,0-.912.6-.912,1.352v3.437c0,2.129-.735,3.255-2.125,3.255v.4c2.138,0,3.212-.994,3.4-3.125a6.361,6.361,0,0,0,2.467.344h13.751a.747.747,0,0,0,.724-.412,6.047,6.047,0,0,0,2.638.412Z" transform="translate(-92.291 -130.883)"/>
    <path id="Path_8250" data-name="Path 8250" d="M103.7,132.235v6.634c0,.472.016.765-.375,1.075h.766c.787,0,.912-.6.912-1.352v-6.634c0-.472-.016-.765.375-1.075h-.766C103.824,130.883,103.7,131.483,103.7,132.235Z" transform="translate(-83.877 -130.883)"/>
    <path id="Path_8251" data-name="Path 8251" d="M225.113,130.883c-.787,0-.912.6-.912,1.352v6.634c0,.472.016.765-.375,1.075h.766c.787,0,.912-.6.912-1.352v-6.634c0-.472-.016-.765.375-1.075Z" transform="translate(-171.132 -130.883)"/>
    <circle id="Ellipse_28" data-name="Ellipse 28" cx="0.806" cy="0.806" r="0.806" transform="translate(40.544 0.691)"/>
    <circle id="Ellipse_29" data-name="Ellipse 29" cx="0.806" cy="0.806" r="0.806" transform="translate(42.82 0.691)"/>
    <circle id="Ellipse_30" data-name="Ellipse 30" cx="0.806" cy="0.806" r="0.806" transform="translate(6.291 1.932)"/>
    <circle id="Ellipse_31" data-name="Ellipse 31" cx="0.806" cy="0.806" r="0.806" transform="translate(8.567 1.932)"/>
    <circle id="Ellipse_32" data-name="Ellipse 32" cx="0.806" cy="0.806" r="0.806" transform="translate(7.464)"/>
  </g>
</svg>
