<svg xmlns="http://www.w3.org/2000/svg" viewBox="0 0 232.51 131.38"><defs><style>.cls-1{fill:#926d39;}</style></defs><g id="Layer_2" data-name="Layer 2"><g id="Brandmark"><rect class="cls-1" x="112.05" y="22.85" width="8.41" height="8.41" transform="translate(14.92 90.13) rotate(-45)"/><path class="cls-1" d="M140.05,65.2l15.08-15.08A8.64,8.64,0,0,0,157.67,44V35.69L134.1,59.25l-3-3,24-24a8.66,8.66,0,0,0,2.54-6.13V17.84L125.18,50.33l-3-3,32.92-32.93a8.62,8.62,0,0,0,2.54-6.12V0L116.26,41.41,74.85,0V8.31a8.65,8.65,0,0,0,2.53,6.12l48.24,48.24a8.65,8.65,0,0,0,6.12,2.53Z"/><path class="cls-1" d="M74.85,26.15a8.69,8.69,0,0,0,2.53,6.13l30.39,30.39a8.69,8.69,0,0,0,6.13,2.53h8.31L74.85,17.84Z"/><path class="cls-1" d="M104.36,65.2,74.85,35.69V44a8.67,8.67,0,0,0,2.53,6.12L89.93,62.67a8.67,8.67,0,0,0,6.12,2.53Z"/><path class="cls-1" d="M70.44,101.89A64.59,64.59,0,0,1,82,100.11c.68.28,1,1.2,1,3.11V126c0,2.73.46,4.9,3.31,4.9h2.78c-1.42-1.12-1.36-2.18-1.36-3.89V104.15A5.66,5.66,0,0,0,86.32,100a63.44,63.44,0,0,1,14,1.86V98H70.44Z"/><path class="cls-1" d="M134.43,127v-24c0-2.72-.46-4.9-3.31-4.9h-2.77c1.41,1.13,1.35,2.19,1.35,3.9v11.84H114.5V102.94c0-2.72-.46-4.9-3.31-4.9h-2.78c1.42,1.13,1.36,2.19,1.36,3.9v24c0,2.73.46,4.9,3.31,4.9h2.77c-1.41-1.12-1.35-2.18-1.35-3.89V116.23h15.2V126c0,2.73.46,4.9,3.31,4.9h2.77C134.37,129.76,134.43,128.7,134.43,127Z"/><path class="cls-1" d="M59.17,128.68a22.22,22.22,0,0,1-4.24-5,31.67,31.67,0,0,0-5.44-6.38c5.73-.93,9.12-4.55,9.12-9.83,0-8.69-6.8-9.42-13.76-9.42H34.22c1.42,1.13,1.36,2.19,1.36,3.9v24c0,2.73.45,4.9,3.31,4.9h2.77c-1.42-1.12-1.36-2.18-1.36-3.89v-24a9.36,9.36,0,0,0-.36-2.94h4.61c6,0,8.84,2.37,8.84,7.46,0,6.2-5,7.51-9.18,7.51a13.1,13.1,0,0,1-1.41,0v2.2c4.52.83,6.6,4.77,8.44,8.24,1.63,3.1,3.18,6,6.19,6a8.74,8.74,0,0,0,5.69-1.84C61.07,129.66,60.09,129.37,59.17,128.68Z"/><path class="cls-1" d="M21.69,102a51.9,51.9,0,0,0-8-1.4,50.65,50.65,0,0,0-7.25-.19v11.89H17.75v2.48H6.68c.05,3.08,0,6.26-.06,9.55,0,1.5-.12,3-.2,4.45,2.18,0,4.52-.06,7-.26A80.55,80.55,0,0,0,23.92,127v4H.13a5,5,0,0,0,1-.83A4.49,4.49,0,0,0,2,128.9v-29a5.05,5.05,0,0,0-.63-.83A5.45,5.45,0,0,0,0,98H21.63Z"/><path id="Path_8249" data-name="Path 8249" class="cls-1" d="M216.57,116v-5.51c0-1.31,0-2.13,1-3h-2.12c-2.18,0-2.53,1.66-2.53,3.74v9.54c0,5.9-2,9-5.89,9v1.1c5.93,0,8.9-2.76,9.42-8.67"/><path id="Path_8248" data-name="Path 8248" class="cls-1" d="M201.38,123.17c-1.08-.86-1-1.67-1-3v-9.73c0-1.31,0-2.12,1-3h-2.12c-2.18,0-2.53,1.66-2.53,3.75v8.19a7.77,7.77,0,0,0,.21,2H167.09c-4.68,0-6.33-1.7-6.33-5.49v-4.74c0-2.08-.35-3.75-2.53-3.75h-2.12c1.08.86,1,1.67,1,3V116c0,6.64,4.76,7.2,10.09,7.2Z"/><circle id="Ellipse_30" data-name="Ellipse 30" class="cls-1" cx="175.79" cy="105.64" r="2.24"/><circle id="Ellipse_31" data-name="Ellipse 31" class="cls-1" cx="182.1" cy="105.64" r="2.24"/><circle id="Ellipse_32" data-name="Ellipse 32" class="cls-1" cx="179.04" cy="100.28" r="2.24"/><path id="Path_8250" data-name="Path 8250" class="cls-1" d="M227.86,101.79v18.4c0,1.31,0,2.12-1,3H229c2.18,0,2.53-1.66,2.53-3.75V101c0-1.31,0-2.12,1-3h-2.12C228.21,98,227.86,99.71,227.86,101.79Z"/><path class="cls-1" d="M231.54,127a2,2,0,0,0-1.74-.6,1.75,1.75,0,0,0-1.39,1.8,1.73,1.73,0,0,0,1.31,1.46h2.17v.66h-5a.85.85,0,0,1-.54-1.17.77.77,0,0,0,.24.38.7.7,0,0,0,.44.18h1.48a2.16,2.16,0,0,1,.14-3.3,2.5,2.5,0,0,1,1.61-.65c.26,0,1,0,1.28.51A1,1,0,0,1,231.54,127Z"/></g></g></svg>