<svg xmlns="http://www.w3.org/2000/svg" width="975.831" height="692.069" viewBox="0 0 975.831 692.069">
  <g id="Groupe_2233" data-name="Groupe 2233" transform="translate(-6429 -1631.337)" opacity="0.05">
    <g id="Groupe_520" data-name="Groupe 520" transform="translate(6788.332 1631.337)">
      <rect id="Rectangle_1690" data-name="Rectangle 1690" width="26.243" height="26.243" transform="translate(110.64 84.399) rotate(-45)" fill="#fff"/>
      <path id="Tracé_8229" data-name="Tracé 8229" d="M336.585,236.266l47.061-47.057a27.01,27.01,0,0,0,7.912-19.1V144.182l-73.53,73.527-9.279-9.279,74.9-74.893a27.01,27.01,0,0,0,7.912-19.1V88.51L290.195,189.873l-9.279-9.279L383.645,77.865a27.01,27.01,0,0,0,7.912-19.1V32.839l-129.2,129.2-129.2-129.2V58.765a27.021,27.021,0,0,0,7.909,19.1L291.561,228.354a27,27,0,0,0,19.1,7.912Z" transform="translate(-133.161 -32.839)" fill="#fff"/>
      <path id="Tracé_8230" data-name="Tracé 8230" d="M133.161,76.609a27.021,27.021,0,0,0,7.909,19.1l94.82,94.817a27.011,27.011,0,0,0,19.1,7.912h25.926L133.161,50.683Z" transform="translate(-133.161 4.988)" fill="#fff"/>
      <path id="Tracé_8231" data-name="Tracé 8231" d="M225.245,160.611,133.161,68.527V94.453a27.021,27.021,0,0,0,7.909,19.1L180.218,152.7a27.01,27.01,0,0,0,19.1,7.912Z" transform="translate(-133.161 42.816)" fill="#fff"/>
    </g>
    <g id="Groupe_522" data-name="Groupe 522" transform="translate(6429 2219.401)">
      <path id="Tracé_8240" data-name="Tracé 8240" d="M112.965,142.879a201.707,201.707,0,0,1,36.116-5.556c2.112.9,2.976,3.741,2.976,9.7v71.031c0,8.5,1.416,15.288,10.311,15.288h8.661c-4.421-3.5-4.237-6.817-4.237-12.155V149.949c0-5.675-1.441-10-4.3-12.907a198.076,198.076,0,0,1,43.7,5.815V130.883H112.965Z" transform="translate(165.916 -130.883)" fill="#fff"/>
      <path id="Tracé_8241" data-name="Tracé 8241" d="M251.167,142.879a201.774,201.774,0,0,1,36.119-5.556c2.109.9,2.973,3.741,2.973,9.7v71.031c0,8.5,1.417,15.288,10.312,15.288h8.661c-4.421-3.5-4.237-6.817-4.237-12.155V149.949c0-5.675-1.442-10-4.3-12.907a198,198,0,0,1,43.7,5.815V130.883H251.167Z" transform="translate(521.443 -130.883)" fill="#fff"/>
      <path id="Tracé_8242" data-name="Tracé 8242" d="M370.089,221.185V146.171c0-8.5-1.417-15.288-10.312-15.288h-8.661c4.421,3.5,4.237,6.817,4.237,12.155v36.946H307.906V146.171c0-8.5-1.416-15.288-10.311-15.288h-8.661c4.421,3.5,4.24,6.817,4.24,12.155v75.015c0,8.5,1.417,15.288,10.311,15.288h8.658c-4.421-3.5-4.237-6.817-4.237-12.155V187.634h47.447v30.419c0,8.5,1.417,15.288,10.311,15.288h8.661C369.9,229.84,370.089,226.523,370.089,221.185Z" transform="translate(601.505 -130.883)" fill="#fff"/>
      <path id="Tracé_8243" data-name="Tracé 8243" d="M89.923,218.053V146.171c0-8.5-1.416-15.288-10.311-15.288H70.951c4.421,3.5,4.237,6.817,4.237,12.155v78.147c0,5.338.184,8.655-4.237,12.155h65.764V221.457c-14.164,2.324-28.794,4.73-47.841,5.553A29.83,29.83,0,0,0,89.923,218.053Z" transform="translate(47.955 -130.883)" fill="#fff"/>
      <path id="Tracé_8244" data-name="Tracé 8244" d="M265.191,226.452c-4.524-3.3-8.68-9.173-13.241-15.615-4.823-6.82-10.221-14.448-16.963-19.911,17.877-2.9,28.447-14.2,28.447-30.662,0-27.115-21.2-29.38-42.923-29.38H187.359c4.421,3.5,4.237,6.817,4.237,12.155v75.015c0,8.5,1.417,15.288,10.311,15.288h8.661c-4.421-3.5-4.237-6.817-4.237-12.155V146.171A29.086,29.086,0,0,0,205.208,137h14.38c18.813,0,27.574,7.394,27.574,23.265,0,19.35-15.581,23.415-28.65,23.415a42.117,42.117,0,0,1-4.377-.15v6.858c14.09,2.614,20.579,14.891,26.307,25.727,5.1,9.656,9.927,18.776,19.315,18.776,9.12,0,14.81-3.295,17.774-5.731C271.113,229.525,268.071,228.629,265.191,226.452Z" transform="translate(350.237 -130.883)" fill="#fff"/>
      <path id="Tracé_8245" data-name="Tracé 8245" d="M222.036,130.883h-8.658c4.418,3.5,4.234,6.817,4.234,12.155v48.468c0,24.079-8.364,36.805-24.185,36.805-15.721,0-24.029-12.726-24.029-36.805V146.171c0-8.5-1.416-15.288-10.311-15.288h-8.661c4.421,3.5,4.234,6.817,4.234,12.155v48.62c0,29.492,12.37,43.229,38.924,43.229,26.448,0,38.765-13.737,38.765-43.229V146.171C232.347,137.669,230.931,130.883,222.036,130.883Z" transform="translate(258.238 -130.883)" fill="#fff"/>
      <path id="Tracé_8246" data-name="Tracé 8246" d="M118.031,217.788l-33.38-86.9H64.9c4.39,3.476,2.281,8.187.212,13.868L32.839,233.341H45.3l11.849-35.854H94.064l11.344,30.042a8.991,8.991,0,0,0,8.408,5.812h13.1C122.527,229.865,120.128,223.241,118.031,217.788ZM59.795,189.833,74.5,145.428l16.651,44.406Z" transform="translate(-32.839 -130.883)" fill="#fff"/>
      <path id="Tracé_8247" data-name="Tracé 8247" d="M306.268,217.788l-33.38-86.9H253.13c4.393,3.476,2.284,8.187.215,13.868l-32.269,88.589h12.455l11.849-35.854H282.3l11.344,30.042a8.985,8.985,0,0,0,8.408,5.812h13.1C310.764,229.865,308.361,223.241,306.268,217.788Zm-58.239-27.954,14.71-44.406,16.651,44.406Z" transform="translate(434.16 -130.883)" fill="#fff"/>
    </g>
    <g id="Groupe_525" data-name="Groupe 525" transform="translate(6527.448 1959.769)">
      <path id="Tracé_8248" data-name="Tracé 8248" d="M265.121,223.723c-5.562-4.4-5.335-8.577-5.335-15.293V158.506c0-6.72-.228-10.889,5.335-15.293h-10.9c-11.191,0-12.974,8.538-12.974,19.235v42.041a40.35,40.35,0,0,0,1.064,10.422H89.173c-23.988,0-32.463-8.683-32.463-28.149V162.448c0-10.7-1.782-19.235-12.973-19.235h-10.9c5.562,4.4,5.331,8.573,5.331,15.293v28.255c0,34.112,24.447,36.962,51.776,36.962Z" transform="translate(-32.839 -94.811)" fill="#fff"/>
      <path id="Tracé_8249" data-name="Tracé 8249" d="M510.8,259.794c-5.562-4.4-5.331-8.577-5.331-15.294V146.176c0-6.716-.232-10.889,5.331-15.293h-10.9c-11.191,0-12.974,8.538-12.974,19.234v90.441A40.525,40.525,0,0,0,488,250.981H441.1c-23.992,0-34.689-8.683-34.689-28.149V194.577c0-6.72-.232-10.889,5.331-15.294h-10.9c-11.191,0-12.974,8.538-12.974,19.235v41.209c0,5.135-.8,11.254-4.593,11.254H198.4c-23.969,0-34.661-8.667-34.685-28.09V194.577c0-6.72-.228-10.889,5.331-15.294H158.152c-11.191,0-12.973,8.538-12.973,19.235v48.9c0,30.292-10.457,46.3-30.234,46.3v5.641c30.422,0,45.7-14.147,48.357-44.463,10.171,4.5,23.384,4.891,35.1,4.891H394.042c4.86,0,8.318-1.975,10.3-5.868,10.579,5.4,24.871,5.868,37.539,5.868Z" transform="translate(207.356 -130.882)" fill="#fff"/>
      <path id="Tracé_8250" data-name="Tracé 8250" d="M108.655,150.117V244.5c0,6.716.232,10.889-5.331,15.294h10.9c11.191,0,12.974-8.538,12.974-19.235V146.176c0-6.716-.232-10.889,5.331-15.293H121.632C110.441,130.883,108.655,139.421,108.655,150.117Z" transform="translate(173.359 -130.882)" fill="#fff"/>
      <path id="Tracé_8251" data-name="Tracé 8251" d="M242.13,130.883c-11.191,0-12.974,8.538-12.974,19.234V244.5c0,6.716.228,10.889-5.331,15.294h10.893c11.191,0,12.974-8.538,12.974-19.235V146.176c0-6.716-.228-10.889,5.331-15.293Z" transform="translate(525.878 -130.882)" fill="#fff"/>
      <circle id="Ellipse_28" data-name="Ellipse 28" cx="11.47" cy="11.47" r="11.47" transform="translate(576.838 9.828)" fill="#fff"/>
      <circle id="Ellipse_29" data-name="Ellipse 29" cx="11.47" cy="11.47" r="11.47" transform="translate(609.223 9.828)" fill="#fff"/>
      <circle id="Ellipse_30" data-name="Ellipse 30" cx="11.47" cy="11.47" r="11.47" transform="translate(89.498 27.492)" fill="#fff"/>
      <circle id="Ellipse_31" data-name="Ellipse 31" cx="11.47" cy="11.47" r="11.47" transform="translate(121.883 27.492)" fill="#fff"/>
      <circle id="Ellipse_32" data-name="Ellipse 32" cx="11.47" cy="11.47" r="11.47" transform="translate(106.188)" fill="#fff"/>
    </g>
  </g>
</svg>
