<svg id="Group_526" data-name="Group 526" xmlns="http://www.w3.org/2000/svg" width="120.123" height="85.193" viewBox="0 0 120.123 85.193">
  <g id="Group_520" data-name="Group 520" transform="translate(44.233)">
    <rect id="Rectangle_1690" data-name="Rectangle 1690" width="3.231" height="3.231" transform="translate(13.62 10.389) rotate(-45)"/>
    <path id="Path_8229" data-name="Path 8229" d="M158.2,57.881,164,52.088a3.325,3.325,0,0,0,.974-2.351V46.545L155.918,55.6l-1.142-1.142L164,45.235a3.325,3.325,0,0,0,.974-2.351V39.692L152.492,52.17l-1.142-1.142L164,38.382a3.325,3.325,0,0,0,.974-2.351V32.839l-15.9,15.9-15.9-15.9v3.192a3.326,3.326,0,0,0,.974,2.351L152.66,56.907a3.324,3.324,0,0,0,2.351.974Z" transform="translate(-133.161 -32.839)"/>
    <path id="Path_8230" data-name="Path 8230" d="M133.161,53.874a3.326,3.326,0,0,0,.974,2.351L145.807,67.9a3.325,3.325,0,0,0,2.351.974h3.191L133.161,50.683Z" transform="translate(-133.161 -43.83)"/>
    <path id="Path_8231" data-name="Path 8231" d="M144.5,79.862,133.161,68.527v3.191a3.326,3.326,0,0,0,.974,2.351l4.819,4.819a3.325,3.325,0,0,0,2.351.974Z" transform="translate(-133.161 -54.821)"/>
  </g>
  <g id="Group_522" data-name="Group 522" transform="translate(0 72.39)">
    <path id="Path_8240" data-name="Path 8240" d="M112.965,132.36a24.833,24.833,0,0,1,4.446-.684c.26.11.366.46.366,1.194v8.744c0,1.047.174,1.882,1.269,1.882h1.066c-.544-.431-.522-.839-.522-1.5V133.23a2.184,2.184,0,0,0-.529-1.589,24.383,24.383,0,0,1,5.38.716v-1.474H112.965Z" transform="translate(-78.635 -130.883)"/>
    <path id="Path_8241" data-name="Path 8241" d="M251.167,132.36a24.84,24.84,0,0,1,4.446-.684c.26.11.366.46.366,1.194v8.744c0,1.047.174,1.882,1.269,1.882h1.066c-.544-.431-.521-.839-.521-1.5V133.23a2.183,2.183,0,0,0-.529-1.589,24.373,24.373,0,0,1,5.38.716v-1.474H251.167Z" transform="translate(-156.06 -130.883)"/>
    <path id="Path_8242" data-name="Path 8242" d="M298.924,142v-9.234c0-1.047-.174-1.882-1.269-1.882h-1.066c.544.431.522.839.522,1.5v4.548h-5.841v-4.162c0-1.047-.174-1.882-1.269-1.882h-1.066c.544.431.522.839.522,1.5v9.234c0,1.047.174,1.882,1.269,1.882h1.066c-.544-.431-.522-.839-.522-1.5v-4.13h5.841v3.745c0,1.047.174,1.882,1.269,1.882h1.066C298.9,143.064,298.924,142.656,298.924,142Z" transform="translate(-179.322 -130.883)"/>
    <path id="Path_8243" data-name="Path 8243" d="M73.286,141.613v-8.849c0-1.047-.174-1.882-1.269-1.882H70.951c.544.431.522.839.522,1.5V142c0,.657.023,1.065-.522,1.5h8.1v-1.463a46.149,46.149,0,0,1-5.889.684A3.672,3.672,0,0,0,73.286,141.613Z" transform="translate(-56.314 -130.883)"/>
    <path id="Path_8244" data-name="Path 8244" d="M196.94,142.647a8.566,8.566,0,0,1-1.63-1.922,12.049,12.049,0,0,0-2.088-2.451c2.2-.358,3.5-1.748,3.5-3.774,0-3.338-2.61-3.617-5.284-3.617h-4.081c.544.431.522.839.522,1.5v9.234c0,1.047.174,1.882,1.269,1.882h1.066c-.544-.431-.522-.839-.522-1.5v-9.234a3.58,3.58,0,0,0-.138-1.129h1.77c2.316,0,3.394.91,3.394,2.864,0,2.382-1.918,2.882-3.527,2.882a5.178,5.178,0,0,1-.539-.018v.844c1.734.322,2.533,1.833,3.238,3.167.628,1.189,1.222,2.311,2.378,2.311a3.363,3.363,0,0,0,2.188-.706A2.038,2.038,0,0,1,196.94,142.647Z" transform="translate(-121.182 -130.883)"/>
    <path id="Path_8245" data-name="Path 8245" d="M159.24,130.883h-1.066c.544.431.521.839.521,1.5v5.966c0,2.964-1.03,4.531-2.977,4.531s-2.958-1.567-2.958-4.531v-5.581c0-1.047-.174-1.882-1.269-1.882h-1.066c.544.431.521.839.521,1.5v5.985c0,3.63,1.523,5.322,4.792,5.322s4.772-1.691,4.772-5.322v-5.6C160.51,131.718,160.335,130.883,159.24,130.883Z" transform="translate(-100.119 -130.883)"/>
    <path id="Path_8246" data-name="Path 8246" d="M43.326,141.581l-4.109-10.7H36.785c.54.428.281,1.008.026,1.707L32.839,143.5h1.534l1.459-4.414h4.545l1.4,3.7a1.107,1.107,0,0,0,1.035.715H44.42A4.492,4.492,0,0,1,43.326,141.581Zm-7.169-3.441,1.81-5.466,2.05,5.466Z" transform="translate(-32.839 -130.883)"/>
    <path id="Path_8247" data-name="Path 8247" d="M231.563,141.581l-4.109-10.7h-2.432c.541.428.281,1.008.026,1.707L221.076,143.5h1.533l1.459-4.414h4.545l1.4,3.7a1.106,1.106,0,0,0,1.035.715h1.613A4.492,4.492,0,0,1,231.563,141.581Zm-7.169-3.441,1.811-5.466,2.05,5.466Z" transform="translate(-140.417 -130.883)"/>
  </g>
  <g id="Group_525" data-name="Group 525" transform="translate(12.119 40.43)">
    <path id="Path_8248" data-name="Path 8248" d="M61.433,153.124c-.685-.542-.657-1.056-.657-1.883V145.1c0-.827-.028-1.34.657-1.883H60.091c-1.378,0-1.6,1.051-1.6,2.368v5.175a4.966,4.966,0,0,0,.131,1.283H39.774c-2.953,0-4-1.069-4-3.465v-2.993c0-1.317-.219-2.368-1.6-2.368H32.839c.685.542.656,1.055.656,1.883v3.478c0,4.2,3.009,4.55,6.374,4.55Z" transform="translate(-32.839 -137.255)"/>
    <path id="Path_8249" data-name="Path 8249" d="M163.675,146.752c-.685-.542-.656-1.056-.656-1.883v-12.1c0-.827-.029-1.34.656-1.883h-1.341c-1.378,0-1.6,1.051-1.6,2.368v11.133a4.991,4.991,0,0,0,.131,1.283h-5.772c-2.953,0-4.27-1.069-4.27-3.465v-3.478c0-.827-.029-1.34.656-1.883h-1.341c-1.378,0-1.6,1.051-1.6,2.368v5.073c0,.632-.1,1.385-.565,1.385H125.218c-2.951,0-4.267-1.067-4.27-3.458v-3.485c0-.827-.028-1.34.656-1.883h-1.341c-1.378,0-1.6,1.051-1.6,2.368v6.02c0,3.729-1.287,5.7-3.722,5.7v.694c3.745,0,5.626-1.742,5.953-5.473a11.141,11.141,0,0,0,4.32.6H149.3a1.308,1.308,0,0,0,1.267-.722,10.592,10.592,0,0,0,4.621.722Z" transform="translate(-75.27 -130.883)"/>
    <path id="Path_8250" data-name="Path 8250" d="M103.98,133.251v11.618c0,.827.029,1.34-.656,1.883h1.341c1.378,0,1.6-1.051,1.6-2.368V132.766c0-.827-.029-1.34.656-1.883h-1.341C104.2,130.883,103.98,131.934,103.98,133.251Z" transform="translate(-69.265 -130.883)"/>
    <path id="Path_8251" data-name="Path 8251" d="M226.079,130.883c-1.378,0-1.6,1.051-1.6,2.368v11.618c0,.827.028,1.34-.656,1.883h1.341c1.378,0,1.6-1.051,1.6-2.368V132.766c0-.827-.028-1.34.656-1.883Z" transform="translate(-131.538 -130.883)"/>
    <circle id="Ellipse_28" data-name="Ellipse 28" cx="1.412" cy="1.412" r="1.412" transform="translate(71.008 1.21)"/>
    <circle id="Ellipse_29" data-name="Ellipse 29" cx="1.412" cy="1.412" r="1.412" transform="translate(74.995 1.21)"/>
    <circle id="Ellipse_30" data-name="Ellipse 30" cx="1.412" cy="1.412" r="1.412" transform="translate(11.017 3.384)"/>
    <circle id="Ellipse_31" data-name="Ellipse 31" cx="1.412" cy="1.412" r="1.412" transform="translate(15.004 3.384)"/>
    <circle id="Ellipse_32" data-name="Ellipse 32" cx="1.412" cy="1.412" r="1.412" transform="translate(13.072)"/>
  </g>
</svg>
