<svg xmlns="http://www.w3.org/2000/svg" width="360.877" height="255.938" viewBox="0 0 360.877 255.938">
  <g id="Groupe_2246" data-name="Groupe 2246" transform="translate(-6429 -1631.337)">
    <g id="Groupe_520" data-name="Groupe 520" transform="translate(6561.887 1631.337)">
      <rect id="Rectangle_1690" data-name="Rectangle 1690" width="9.705" height="9.705" transform="translate(40.916 31.212) rotate(-45)" fill="#926d39"/>
      <path id="Tracé_8229" data-name="Tracé 8229" d="M208.39,108.069l17.4-17.4A9.989,9.989,0,0,0,228.72,83.6V74.015l-27.192,27.191L198.1,97.775l27.7-27.7a9.989,9.989,0,0,0,2.926-7.063V53.427L191.235,90.913,187.8,87.481,225.794,49.49a9.989,9.989,0,0,0,2.926-7.063V32.839L180.941,80.618l-47.78-47.779v9.588a9.993,9.993,0,0,0,2.925,7.063l55.654,55.653a9.985,9.985,0,0,0,7.063,2.926Z" transform="translate(-133.161 -32.839)" fill="#926d39"/>
      <path id="Tracé_8230" data-name="Tracé 8230" d="M133.161,60.271a9.993,9.993,0,0,0,2.925,7.064L171.152,102.4a9.989,9.989,0,0,0,7.064,2.926H187.8L133.161,50.683Z" transform="translate(-133.161 -30.095)" fill="#926d39"/>
      <path id="Tracé_8231" data-name="Tracé 8231" d="M167.215,102.581,133.161,68.527v9.588a9.993,9.993,0,0,0,2.925,7.064l14.478,14.477a9.989,9.989,0,0,0,7.064,2.926Z" transform="translate(-133.161 -27.351)" fill="#926d39"/>
    </g>
    <g id="Groupe_522" data-name="Groupe 522" transform="translate(6429 1848.812)">
      <path id="Tracé_8240" data-name="Tracé 8240" d="M112.965,135.319a74.592,74.592,0,0,1,13.356-2.055c.781.331,1.1,1.383,1.1,3.587V163.12c0,3.144.524,5.654,3.813,5.654h3.2c-1.635-1.295-1.567-2.521-1.567-4.5V137.934a6.56,6.56,0,0,0-1.59-4.773,73.253,73.253,0,0,1,16.162,2.151v-4.428H112.965Z" transform="translate(-9.831 -130.883)" fill="#926d39"/>
      <path id="Tracé_8241" data-name="Tracé 8241" d="M251.167,135.319a74.618,74.618,0,0,1,13.357-2.055c.78.331,1.1,1.383,1.1,3.587V163.12c0,3.144.524,5.654,3.813,5.654h3.2c-1.635-1.295-1.567-2.521-1.567-4.5V137.934a6.56,6.56,0,0,0-1.59-4.773,73.223,73.223,0,0,1,16.162,2.151v-4.428H251.167Z" transform="translate(34.556 -130.883)" fill="#926d39"/>
      <path id="Tracé_8242" data-name="Tracé 8242" d="M318.946,164.278V136.537c0-3.144-.524-5.654-3.813-5.654h-3.2c1.635,1.295,1.567,2.521,1.567,4.5v13.663H295.95v-12.5c0-3.144-.524-5.654-3.813-5.654h-3.2c1.635,1.295,1.568,2.521,1.568,4.5V163.12c0,3.144.524,5.654,3.813,5.654h3.2c-1.635-1.295-1.567-2.521-1.567-4.5V151.87H313.5V163.12c0,3.144.524,5.654,3.813,5.654h3.2C318.878,167.479,318.946,166.252,318.946,164.278Z" transform="translate(40.364 -130.883)" fill="#926d39"/>
      <path id="Tracé_8243" data-name="Tracé 8243" d="M77.967,163.12V136.537c0-3.144-.524-5.654-3.813-5.654h-3.2c1.635,1.295,1.567,2.521,1.567,4.5v28.9c0,1.974.068,3.2-1.567,4.5H95.272v-4.395a138.634,138.634,0,0,1-17.692,2.054A11.032,11.032,0,0,0,77.967,163.12Z" transform="translate(-26.978 -130.883)" fill="#926d39"/>
      <path id="Tracé_8244" data-name="Tracé 8244" d="M216.143,166.226c-1.673-1.221-3.21-3.392-4.9-5.775a36.192,36.192,0,0,0-6.273-7.363c6.611-1.074,10.52-5.252,10.52-11.339,0-10.028-7.841-10.865-15.874-10.865h-12.26c1.635,1.295,1.567,2.521,1.567,4.5V163.12c0,3.144.524,5.654,3.813,5.654h3.2c-1.635-1.295-1.567-2.521-1.567-4.5V136.537a10.756,10.756,0,0,0-.415-3.392h5.318c6.957,0,10.2,2.734,10.2,8.6,0,7.156-5.762,8.659-10.6,8.659a15.58,15.58,0,0,1-1.619-.055v2.536c5.211.967,7.61,5.507,9.729,9.514,1.888,3.571,3.671,6.944,7.143,6.944a10.1,10.1,0,0,0,6.573-2.12C218.332,167.362,217.207,167.031,216.143,166.226Z" transform="translate(11.452 -130.883)" fill="#926d39"/>
      <path id="Tracé_8245" data-name="Tracé 8245" d="M176.908,130.883h-3.2c1.634,1.295,1.566,2.521,1.566,4.5V153.3c0,8.9-3.093,13.611-8.944,13.611-5.814,0-8.887-4.706-8.887-13.611V136.537c0-3.144-.524-5.654-3.813-5.654h-3.2c1.635,1.295,1.566,2.521,1.566,4.5v17.981c0,10.907,4.575,15.987,14.395,15.987,9.781,0,14.336-5.08,14.336-15.987V136.537C180.721,133.392,180.2,130.883,176.908,130.883Z" transform="translate(0.705 -130.883)" fill="#926d39"/>
      <path id="Tracé_8246" data-name="Tracé 8246" d="M64.344,163.022,52,130.883H44.694c1.623,1.285.843,3.028.078,5.129L32.839,168.773h4.607l4.382-13.259H55.481l4.2,11.11a3.325,3.325,0,0,0,3.109,2.149h4.846C66.007,167.488,65.12,165.039,64.344,163.022ZM42.808,152.684l5.439-16.422L54.4,152.684Z" transform="translate(-32.839 -130.883)" fill="#926d39"/>
      <path id="Tracé_8247" data-name="Tracé 8247" d="M252.581,163.022l-12.344-32.139H232.93c1.624,1.285.845,3.028.08,5.129l-11.934,32.762h4.606l4.382-13.259h13.654l4.2,11.11a3.323,3.323,0,0,0,3.109,2.149h4.845C254.244,167.488,253.355,165.039,252.581,163.022Zm-21.538-10.338,5.44-16.422,6.158,16.422Z" transform="translate(21.241 -130.883)" fill="#926d39"/>
    </g>
    <g id="Groupe_525" data-name="Groupe 525" transform="translate(6465.408 1752.796)">
      <path id="Tracé_8248" data-name="Tracé 8248" d="M118.741,172.987c-2.057-1.629-1.973-3.172-1.973-5.656V148.869c0-2.485-.084-4.027,1.973-5.656h-4.03c-4.139,0-4.8,3.157-4.8,7.113v15.547a14.922,14.922,0,0,0,.393,3.854H53.672c-8.871,0-12.005-3.211-12.005-10.41v-8.992c0-3.956-.659-7.113-4.8-7.113h-4.03c2.057,1.629,1.971,3.17,1.971,5.656v10.449c0,12.615,9.041,13.669,19.148,13.669Z" transform="translate(-32.839 -125.313)" fill="#926d39"/>
      <path id="Tracé_8249" data-name="Tracé 8249" d="M261.339,178.556c-2.057-1.629-1.971-3.172-1.971-5.656V136.539c0-2.484-.086-4.027,1.971-5.656h-4.03c-4.139,0-4.8,3.157-4.8,7.113v33.447a14.986,14.986,0,0,0,.393,3.854H235.563c-8.873,0-12.828-3.211-12.828-10.41V154.438c0-2.485-.086-4.027,1.971-5.656h-4.03c-4.139,0-4.8,3.157-4.8,7.113v15.24c0,1.9-.295,4.162-1.7,4.162H145.808c-8.864,0-12.818-3.205-12.827-10.388V154.438c0-2.485-.084-4.027,1.971-5.656h-4.028c-4.139,0-4.8,3.157-4.8,7.113V173.98c0,11.2-3.867,17.124-11.181,17.124v2.086c11.25,0,16.9-5.232,17.883-16.443,3.761,1.664,8.648,1.809,12.979,1.809h72.352a3.929,3.929,0,0,0,3.808-2.17c3.912,2,9.2,2.17,13.882,2.17Z" transform="translate(4.247 -130.883)" fill="#926d39"/>
      <path id="Tracé_8250" data-name="Tracé 8250" d="M105.3,138v34.9c0,2.484.086,4.027-1.971,5.656h4.03c4.139,0,4.8-3.157,4.8-7.113v-34.9c0-2.484-.086-4.027,1.971-5.656h-4.028C105.956,130.883,105.3,134.04,105.3,138Z" transform="translate(-1.002 -130.883)" fill="#926d39"/>
      <path id="Tracé_8251" data-name="Tracé 8251" d="M230.6,130.883c-4.139,0-4.8,3.157-4.8,7.113v34.9c0,2.484.084,4.027-1.971,5.656h4.028c4.139,0,4.8-3.157,4.8-7.113v-34.9c0-2.484-.084-4.027,1.971-5.656Z" transform="translate(53.426 -130.883)" fill="#926d39"/>
      <circle id="Ellipse_28" data-name="Ellipse 28" cx="4.242" cy="4.242" r="4.242" transform="translate(213.324 3.635)" fill="#926d39"/>
      <circle id="Ellipse_29" data-name="Ellipse 29" cx="4.242" cy="4.242" r="4.242" transform="translate(225.3 3.635)" fill="#926d39"/>
      <circle id="Ellipse_30" data-name="Ellipse 30" cx="4.242" cy="4.242" r="4.242" transform="translate(33.098 10.167)" fill="#926d39"/>
      <circle id="Ellipse_31" data-name="Ellipse 31" cx="4.242" cy="4.242" r="4.242" transform="translate(45.074 10.167)" fill="#926d39"/>
      <circle id="Ellipse_32" data-name="Ellipse 32" cx="4.242" cy="4.242" r="4.242" transform="translate(39.27)" fill="#926d39"/>
    </g>
  </g>
</svg>
