<svg xmlns="http://www.w3.org/2000/svg" width="13.136" height="11.494" viewBox="0 0 13.136 11.494">
  <path id="Icon_awesome-quote-left" data-name="Icon awesome-quote-left" d="M11.9,8H9.852V6.355a1.643,1.643,0,0,1,1.642-1.642H11.7a.614.614,0,0,0,.616-.616V2.866A.614.614,0,0,0,11.7,2.25h-.205a4.1,4.1,0,0,0-4.1,4.1v6.157A1.232,1.232,0,0,0,8.62,13.744H11.9a1.232,1.232,0,0,0,1.231-1.231V9.228A1.232,1.232,0,0,0,11.9,8ZM4.515,8H2.463V6.355A1.643,1.643,0,0,1,4.1,4.713H4.31A.614.614,0,0,0,4.926,4.1V2.866A.614.614,0,0,0,4.31,2.25H4.1A4.1,4.1,0,0,0,0,6.355v6.157a1.232,1.232,0,0,0,1.231,1.231H4.515a1.232,1.232,0,0,0,1.231-1.231V9.228A1.232,1.232,0,0,0,4.515,8Z" transform="translate(0 -2.25)" fill="#e74542"/>
</svg>
