<svg xmlns="http://www.w3.org/2000/svg" width="18.079" height="16.787" viewBox="0 0 18.079 16.787">
  <path id="Icon_ionic-ios-star" data-name="Icon ionic-ios-star" d="M19.643,9.186H13.707L11.9,3.8a.654.654,0,0,0-1.227,0l-1.8,5.383H2.9a.648.648,0,0,0-.646.646.474.474,0,0,0,.012.109.62.62,0,0,0,.27.456l4.879,3.438L5.539,19.279A.648.648,0,0,0,5.761,20a.624.624,0,0,0,.363.157.791.791,0,0,0,.4-.145l4.762-3.394,4.762,3.394a.756.756,0,0,0,.4.145A.58.58,0,0,0,16.814,20a.64.64,0,0,0,.222-.726l-1.872-5.444L20,10.364l.117-.1a.677.677,0,0,0,.21-.432A.683.683,0,0,0,19.643,9.186Z" transform="translate(-2.25 -3.375)" fill="#926d39"/>
</svg>
