<svg id="Composant_2_1" data-name="Composant 2 – 1" xmlns="http://www.w3.org/2000/svg" width="117.19" height="17.839" viewBox="0 0 117.19 17.839">
  <path id="Icon_ionic-ios-star" data-name="Icon ionic-ios-star" d="M20.732,9.55H14.424L12.507,3.83a.695.695,0,0,0-1.3,0L9.287,9.55H2.936a.688.688,0,0,0-.686.686.5.5,0,0,0,.013.116.659.659,0,0,0,.287.485L7.735,14.49l-1.99,5.785a.688.688,0,0,0,.236.772.664.664,0,0,0,.386.167A.841.841,0,0,0,6.8,21.06l5.06-3.606,5.06,3.606a.8.8,0,0,0,.429.154.616.616,0,0,0,.382-.167.68.68,0,0,0,.236-.772l-1.99-5.785L21.114,10.8l.124-.107a.719.719,0,0,0,.223-.459A.726.726,0,0,0,20.732,9.55Z" transform="translate(-2.25 -3.375)" fill="#e8c698"/>
  <path id="Icon_ionic-ios-star-2" data-name="Icon ionic-ios-star" d="M20.732,9.55H14.424L12.507,3.83a.695.695,0,0,0-1.3,0L9.287,9.55H2.936a.688.688,0,0,0-.686.686.5.5,0,0,0,.013.116.659.659,0,0,0,.287.485L7.735,14.49l-1.99,5.785a.688.688,0,0,0,.236.772.664.664,0,0,0,.386.167A.841.841,0,0,0,6.8,21.06l5.06-3.606,5.06,3.606a.8.8,0,0,0,.429.154.616.616,0,0,0,.382-.167.68.68,0,0,0,.236-.772l-1.99-5.785L21.114,10.8l.124-.107a.719.719,0,0,0,.223-.459A.726.726,0,0,0,20.732,9.55Z" transform="translate(22.75 -3.375)" fill="#e8c698"/>
  <path id="Icon_ionic-ios-star-3" data-name="Icon ionic-ios-star" d="M20.732,9.55H14.424L12.507,3.83a.695.695,0,0,0-1.3,0L9.287,9.55H2.936a.688.688,0,0,0-.686.686.5.5,0,0,0,.013.116.659.659,0,0,0,.287.485L7.735,14.49l-1.99,5.785a.688.688,0,0,0,.236.772.664.664,0,0,0,.386.167A.841.841,0,0,0,6.8,21.06l5.06-3.606,5.06,3.606a.8.8,0,0,0,.429.154.616.616,0,0,0,.382-.167.68.68,0,0,0,.236-.772l-1.99-5.785L21.114,10.8l.124-.107a.719.719,0,0,0,.223-.459A.726.726,0,0,0,20.732,9.55Z" transform="translate(47.75 -3.375)" fill="#e8c698"/>
  <path id="Icon_ionic-ios-star-4" data-name="Icon ionic-ios-star" d="M20.732,9.55H14.424L12.507,3.83a.695.695,0,0,0-1.3,0L9.287,9.55H2.936a.688.688,0,0,0-.686.686.5.5,0,0,0,.013.116.659.659,0,0,0,.287.485L7.735,14.49l-1.99,5.785a.688.688,0,0,0,.236.772.664.664,0,0,0,.386.167A.841.841,0,0,0,6.8,21.06l5.06-3.606,5.06,3.606a.8.8,0,0,0,.429.154.616.616,0,0,0,.382-.167.68.68,0,0,0,.236-.772l-1.99-5.785L21.114,10.8l.124-.107a.719.719,0,0,0,.223-.459A.726.726,0,0,0,20.732,9.55Z" transform="translate(72.75 -3.375)" fill="#e8c698"/>
  <path id="Icon_ionic-md-star-half" data-name="Icon ionic-md-star-half" d="M21.121,10.778l-6.229-.535L12.459,4.5l-2.433,5.743L3.8,10.778l4.725,4.1L7.106,20.967l5.353-3.23,5.353,3.23L16.4,14.875Zm-7.953,5.784-.709-.428V8.018l1.169,2.761.322.761.824.071,3,.257L15.5,13.838l-.625.542.187.806.681,2.929Z" transform="translate(96.068 -3.814)" fill="#e8c698"/>
</svg>
