<svg xmlns="http://www.w3.org/2000/svg" width="23.734" height="30.415" viewBox="0 0 23.734 30.415">
  <g id="person-shape" transform="translate(0)">
    <g id="Groupe_2014" data-name="Groupe 2014" transform="translate(0)">
      <path id="Tracé_8496" data-name="Tracé 8496" d="M63.671,321.758v5.933a1.977,1.977,0,0,0,1.978,1.978H85.427a1.977,1.977,0,0,0,1.978-1.978v-5.933a5.931,5.931,0,0,0-5.933-5.933h-.507a.52.52,0,0,0-.5.481,4.945,4.945,0,0,1-9.843,0,.52.52,0,0,0-.5-.481H69.6A5.934,5.934,0,0,0,63.671,321.758Z" transform="translate(-63.671 -299.255)" fill="#25282a"/>
      <path id="Tracé_8497" data-name="Tracé 8497" d="M161.364,16.262c3.928,0,7.114-3.641,7.114-8.131S165.293,0,161.364,0s-7.114,3.641-7.114,8.131S157.436,16.262,161.364,16.262Zm0-8.131a4.052,4.052,0,0,0,3.893-2.215,5.072,5.072,0,1,1-8.974,3.232C156.283,7.912,159.508,8.131,161.364,8.131Z" transform="translate(-149.498)" fill="#25282a"/>
    </g>
  </g>
</svg>
