<svg xmlns="http://www.w3.org/2000/svg" width="29.55" height="29.552" viewBox="0 0 29.55 29.552">
  <g id="queue" transform="translate(0 0)">
    <path id="Tracé_8492" data-name="Tracé 8492" d="M13.388,6a7.388,7.388,0,1,0,7.388,7.388A7.395,7.395,0,0,0,13.388,6Zm3.448,10.589a1.229,1.229,0,0,1-1.723.246L12.65,14.68a1.229,1.229,0,0,1-.493-.985v-4a1.231,1.231,0,0,1,2.463,0V13.08l1.97,1.785a1.231,1.231,0,0,1,.245,1.724Z" transform="translate(1.388 1.389)" fill="#25282a"/>
    <path id="Tracé_8493" data-name="Tracé 8493" d="M1.847,14.775A12.922,12.922,0,0,1,21.833,3.949L19.971,5.812a.923.923,0,0,0,.653,1.576h5.541a.924.924,0,0,0,.923-.923V.924A.923.923,0,0,0,25.512.271L23.155,2.628A14.64,14.64,0,0,0,14.775,0,14.77,14.77,0,0,0,.632,19.043.923.923,0,1,0,2.4,18.51a12.909,12.909,0,0,1-.553-3.734Z" transform="translate(0 0.001)" fill="#25282a"/>
    <path id="Tracé_8494" data-name="Tracé 8494" d="M28.456,8.658a.923.923,0,1,0-1.768.533A12.923,12.923,0,0,1,7.267,23.76L9.12,21.886a.924.924,0,0,0-.656-1.574H2.923a.919.919,0,0,0-.656.275A.929.929,0,0,0,2,21.246l.062,5.541a.924.924,0,0,0,1.58.639l2.312-2.338A14.634,14.634,0,0,0,14.313,27.7,14.77,14.77,0,0,0,28.456,8.658Z" transform="translate(0.463 1.851)" fill="#25282a"/>
  </g>
</svg>
