<svg id="wall-clock" xmlns="http://www.w3.org/2000/svg" width="30.415" height="30.415" viewBox="0 0 30.415 30.415">
  <g id="Groupe_2005" data-name="Groupe 2005">
    <g id="Groupe_2004" data-name="Groupe 2004">
      <path id="Tracé_8490" data-name="Tracé 8490" d="M15.207,0A15.207,15.207,0,1,0,30.415,15.207,15.225,15.225,0,0,0,15.207,0Zm0,28.195A12.987,12.987,0,1,1,28.195,15.207,13,13,0,0,1,15.207,28.195Z" fill="#25282a"/>
    </g>
  </g>
  <g id="Groupe_2007" data-name="Groupe 2007" transform="translate(13.357 7.437)">
    <g id="Groupe_2006" data-name="Groupe 2006">
      <path id="Tracé_8491" data-name="Tracé 8491" d="M231.887,132.967h-4.81v-6.66a1.11,1.11,0,0,0-2.22,0v7.77a1.11,1.11,0,0,0,1.11,1.11h5.92a1.11,1.11,0,1,0,0-2.22Z" transform="translate(-224.857 -125.197)" fill="#25282a"/>
    </g>
  </g>
</svg>
