   <svg xmlns="http://www.w3.org/2000/svg" width="38.4" height="26.999" viewBox="0 0 38.4 26.999">
            <path id="Icon_awesome-youtube" data-name="Icon awesome-youtube"
              d="M38.648,8.724a4.825,4.825,0,0,0-3.395-3.417c-2.995-.808-15-.808-15-.808s-12.008,0-15,.808A4.825,4.825,0,0,0,1.852,8.724c-.8,3.014-.8,9.3-.8,9.3s0,6.288.8,9.3a4.753,4.753,0,0,0,3.395,3.362c2.995.808,15,.808,15,.808s12.008,0,15-.808a4.753,4.753,0,0,0,3.395-3.362c.8-3.014.8-9.3.8-9.3s0-6.288-.8-9.3ZM16.323,23.736V12.317l10.036,5.71L16.323,23.736Z"
              transform="translate(-1.05 -4.5)" fill="#fff" />
          </svg>