<svg xmlns="http://www.w3.org/2000/svg" width="49.429" height="29.842" viewBox="0 0 49.429 29.842">
  <g id="Groupe_747" data-name="Groupe 747" transform="translate(-15.112 1.5)">
    <path id="Tracé_8362" data-name="Tracé 8362" d="M-11224.76,4672.837l-3.381,7.375h43.023l-4.609-7.375Z" transform="translate(11245.591 -4672.837)" fill="none" stroke="#707070" stroke-width="3"/>
    <path id="Tracé_8363" data-name="Tracé 8363" d="M-11221.491,4691.265v6.434" transform="translate(11243.172 -4679.539)" fill="none" stroke="#707070" stroke-width="3"/>
    <path id="Tracé_8364" data-name="Tracé 8364" d="M-11221.491,4691.265v6.434" transform="translate(11248.899 -4679.539)" fill="none" stroke="#707070" stroke-width="3"/>
    <path id="Tracé_8364-2" data-name="Tracé 8364" d="M-11221.491,4691.265v6.434" transform="translate(11255.263 -4679.539)" fill="none" stroke="#707070" stroke-width="3"/>
    <path id="Tracé_8364-3" data-name="Tracé 8364" d="M-11221.491,4691.265v6.434" transform="translate(11261.624 -4679.539)" fill="none" stroke="#707070" stroke-width="3"/>
    <path id="Tracé_8364-4" data-name="Tracé 8364" d="M-11221.491,4691.265v6.434" transform="translate(11267.988 -4679.539)" fill="none" stroke="#707070" stroke-width="3"/>
    <path id="Tracé_8364-5" data-name="Tracé 8364" d="M-11221.491,4691.265v6.434" transform="translate(11274.353 -4679.539)" fill="none" stroke="#707070" stroke-width="3"/>
    <path id="Tracé_8364-6" data-name="Tracé 8364" d="M-11221.491,4691.265v6.434" transform="translate(11280.715 -4679.539)" fill="none" stroke="#707070" stroke-width="3"/>
    <path id="Tracé_8364-7" data-name="Tracé 8364" d="M-11221.491,4691.265v6.434" transform="translate(11239.99 -4669.357)" fill="none" stroke="#707070" stroke-width="3"/>
    <path id="Tracé_8364-8" data-name="Tracé 8364" d="M-11221.491,4691.265v6.434" transform="translate(11246.353 -4669.357)" fill="none" stroke="#707070" stroke-width="3"/>
    <path id="Tracé_8364-9" data-name="Tracé 8364" d="M-11221.491,4691.265v6.434" transform="translate(11252.717 -4669.357)" fill="none" stroke="#707070" stroke-width="3"/>
    <path id="Tracé_8364-10" data-name="Tracé 8364" d="M-11221.491,4691.265v6.434" transform="translate(11259.081 -4669.357)" fill="none" stroke="#707070" stroke-width="3"/>
    <path id="Tracé_8364-11" data-name="Tracé 8364" d="M-11221.491,4691.265v6.434" transform="translate(11265.442 -4669.357)" fill="none" stroke="#707070" stroke-width="3"/>
    <path id="Tracé_8364-12" data-name="Tracé 8364" d="M-11221.491,4691.265v6.434" transform="translate(11271.806 -4669.357)" fill="none" stroke="#707070" stroke-width="3"/>
    <path id="Tracé_8364-13" data-name="Tracé 8364" d="M-11221.491,4691.265v6.434" transform="translate(11278.169 -4669.357)" fill="none" stroke="#707070" stroke-width="3"/>
    <path id="Tracé_8364-14" data-name="Tracé 8364" d="M-11221.491,4691.265v6.434" transform="translate(11284.532 -4669.357)" fill="none" stroke="#707070" stroke-width="3"/>
  </g>
</svg>
