<svg xmlns="http://www.w3.org/2000/svg" width="47" height="31" viewBox="0 0 47 31">
  <g id="Groupe_748" data-name="Groupe 748" transform="translate(-20.351 -0.342)">
    <g id="Rectangle_1797" data-name="Rectangle 1797" transform="translate(25.351 5.342)" fill="none" stroke="#707070" stroke-width="3">
      <rect width="35" height="20" rx="1" stroke="none"/>
      <rect x="1.5" y="1.5" width="32" height="17" rx="0.5" fill="none"/>
    </g>
    <rect id="Rectangle_1798" data-name="Rectangle 1798" width="4" height="3" transform="translate(20.351 7.342)" fill="#707070"/>
    <rect id="Rectangle_1802" data-name="Rectangle 1802" width="5" height="3" transform="translate(62.351 7.342)" fill="#707070"/>
    <rect id="Rectangle_1799" data-name="Rectangle 1799" width="4" height="4" transform="translate(20.351 13.342)" fill="#707070"/>
    <rect id="Rectangle_1803" data-name="Rectangle 1803" width="5" height="4" transform="translate(62.351 13.342)" fill="#707070"/>
    <rect id="Rectangle_1800" data-name="Rectangle 1800" width="4" height="4" transform="translate(20.351 20.342)" fill="#707070"/>
    <rect id="Rectangle_1801" data-name="Rectangle 1801" width="5" height="4" transform="translate(62.351 20.342)" fill="#707070"/>
    <rect id="Rectangle_1804" data-name="Rectangle 1804" width="3" height="5" transform="translate(29.351 0.342)" fill="#707070"/>
    <rect id="Rectangle_1813" data-name="Rectangle 1813" width="3" height="6" transform="translate(29.351 25.342)" fill="#707070"/>
    <rect id="Rectangle_1805" data-name="Rectangle 1805" width="3" height="5" transform="translate(34.351 0.342)" fill="#707070"/>
    <rect id="Rectangle_1812" data-name="Rectangle 1812" width="3" height="6" transform="translate(34.351 25.342)" fill="#707070"/>
    <rect id="Rectangle_1806" data-name="Rectangle 1806" width="3" height="5" transform="translate(41.351 0.342)" fill="#707070"/>
    <rect id="Rectangle_1811" data-name="Rectangle 1811" width="3" height="6" transform="translate(41.351 25.342)" fill="#707070"/>
    <rect id="Rectangle_1807" data-name="Rectangle 1807" width="3" height="5" transform="translate(48.351 0.342)" fill="#707070"/>
    <rect id="Rectangle_1810" data-name="Rectangle 1810" width="3" height="6" transform="translate(48.351 25.342)" fill="#707070"/>
    <rect id="Rectangle_1808" data-name="Rectangle 1808" width="3" height="5" transform="translate(53.351 0.342)" fill="#707070"/>
    <rect id="Rectangle_1809" data-name="Rectangle 1809" width="3" height="6" transform="translate(53.351 25.342)" fill="#707070"/>
  </g>
</svg>
