<svg xmlns="http://www.w3.org/2000/svg" width="48.855" height="39.774" viewBox="0 0 48.855 39.774">
  <g id="Groupe_751" data-name="Groupe 751" transform="translate(-13.82 1.5)">
    <g id="Groupe_750" data-name="Groupe 750" transform="translate(13.755 1.527)">
      <rect id="Rectangle_1756" data-name="Rectangle 1756" width="5" height="3" rx="1.5" transform="translate(0.104 0.342)" fill="#707070"/>
      <rect id="Rectangle_1757" data-name="Rectangle 1757" width="5" height="5" rx="2" transform="translate(0.104 5.342)" fill="#707070"/>
      <rect id="Rectangle_1758" data-name="Rectangle 1758" width="5" height="5" rx="2" transform="translate(0.104 12.342)" fill="#707070"/>
      <rect id="Rectangle_1759" data-name="Rectangle 1759" width="5.091" height="4.454" rx="2" transform="translate(0.065 22.729) rotate(-30)" fill="#707070"/>
    </g>
    <g id="Groupe_745" data-name="Groupe 745" transform="translate(0)">
      <path id="Tracé_8365" data-name="Tracé 8365" d="M-10872.156,4669.352h8.068v16.568s.84,6.671,7.1,6.671,9.039-6.671,9.039-6.671v-16.568h6.885v21.519s-7.088,8.069-14.633,8.069-16.461-8.069-16.461-8.069V4670" transform="translate(10895.015 -4669.352)" fill="none" stroke="#707070" stroke-width="3"/>
      <rect id="Rectangle_1785" data-name="Rectangle 1785" width="5.091" height="4.454" rx="2" transform="translate(57.584 0.413)" fill="#707070"/>
      <rect id="Rectangle_1784" data-name="Rectangle 1784" width="5.091" height="4.454" rx="2" transform="translate(57.584 7.413)" fill="#707070"/>
      <rect id="Rectangle_1783" data-name="Rectangle 1783" width="5.091" height="4.454" rx="2" transform="translate(57.584 14.412)" fill="#707070"/>
      <rect id="Rectangle_1782" data-name="Rectangle 1782" width="5.091" height="4.454" rx="2" transform="translate(59.948 28.113) rotate(-150)" fill="#707070"/>
      <rect id="Rectangle_1777" data-name="Rectangle 1777" width="5.091" height="4.454" rx="2" transform="translate(21.665 31.729) rotate(-60)" fill="#707070"/>
      <rect id="Rectangle_1781" data-name="Rectangle 1781" width="5.091" height="4.454" rx="2" transform="translate(52.474 33.956) rotate(-120)" fill="#707070"/>
      <rect id="Rectangle_1778" data-name="Rectangle 1778" width="5.091" height="4.454" rx="2" transform="matrix(0.259, -0.966, 0.966, 0.259, 29.056, 36.339)" fill="#707070"/>
      <rect id="Rectangle_1780" data-name="Rectangle 1780" width="5.091" height="4.454" rx="2" transform="matrix(-0.259, -0.966, 0.966, -0.259, 44.638, 37.491)" fill="#707070"/>
      <rect id="Rectangle_1779" data-name="Rectangle 1779" width="5.091" height="4.454" rx="2" transform="translate(36.639 38.274) rotate(-90)" fill="#707070"/>
    </g>
  </g>
</svg>
