<svg xmlns="http://www.w3.org/2000/svg" width="56" height="32" viewBox="0 0 56 32">
  <g id="Groupe_746" data-name="Groupe 746" transform="translate(-26.157 -0.342)">
    <g id="Rectangle_1786" data-name="Rectangle 1786" transform="translate(34.157 7.342)" fill="none" stroke="#707070" stroke-width="3">
      <rect width="40" height="18" rx="9" stroke="none"/>
      <rect x="1.5" y="1.5" width="37" height="15" rx="7.5" fill="none"/>
    </g>
    <g id="Rectangle_1787" data-name="Rectangle 1787" transform="translate(41.157 0.342)" fill="#707070" stroke="#707070" stroke-width="1">
      <rect width="5" height="7" rx="2.5" stroke="none"/>
      <rect x="0.5" y="0.5" width="4" height="6" rx="2" fill="none"/>
    </g>
    <g id="Rectangle_1793" data-name="Rectangle 1793" transform="translate(41.157 25.342)" fill="#707070" stroke="#707070" stroke-width="1">
      <rect width="5" height="7" rx="2.5" stroke="none"/>
      <rect x="0.5" y="0.5" width="4" height="6" rx="2" fill="none"/>
    </g>
    <g id="Rectangle_1788" data-name="Rectangle 1788" transform="translate(48.157 0.342)" fill="#707070" stroke="#707070" stroke-width="1">
      <rect width="5" height="7" rx="2.5" stroke="none"/>
      <rect x="0.5" y="0.5" width="4" height="6" rx="2" fill="none"/>
    </g>
    <g id="Rectangle_1794" data-name="Rectangle 1794" transform="translate(48.157 25.342)" fill="#707070" stroke="#707070" stroke-width="1">
      <rect width="5" height="7" rx="2.5" stroke="none"/>
      <rect x="0.5" y="0.5" width="4" height="6" rx="2" fill="none"/>
    </g>
    <g id="Rectangle_1789" data-name="Rectangle 1789" transform="translate(55.157 0.342)" fill="#707070" stroke="#707070" stroke-width="1">
      <rect width="5" height="7" rx="2.5" stroke="none"/>
      <rect x="0.5" y="0.5" width="4" height="6" rx="2" fill="none"/>
    </g>
    <g id="Rectangle_1795" data-name="Rectangle 1795" transform="translate(55.157 25.342)" fill="#707070" stroke="#707070" stroke-width="1">
      <rect width="5" height="7" rx="2.5" stroke="none"/>
      <rect x="0.5" y="0.5" width="4" height="6" rx="2" fill="none"/>
    </g>
    <g id="Rectangle_1790" data-name="Rectangle 1790" transform="translate(62.157 0.342)" fill="#707070" stroke="#707070" stroke-width="1">
      <rect width="5" height="7" rx="2.5" stroke="none"/>
      <rect x="0.5" y="0.5" width="4" height="6" rx="2" fill="none"/>
    </g>
    <g id="Rectangle_1796" data-name="Rectangle 1796" transform="translate(62.157 25.342)" fill="#707070" stroke="#707070" stroke-width="1">
      <rect width="5" height="7" rx="2.5" stroke="none"/>
      <rect x="0.5" y="0.5" width="4" height="6" rx="2" fill="none"/>
    </g>
    <g id="Rectangle_1791" data-name="Rectangle 1791" transform="translate(77.157 12.342)" fill="#707070" stroke="#707070" stroke-width="1">
      <rect width="5" height="7" rx="2.5" stroke="none"/>
      <rect x="0.5" y="0.5" width="4" height="6" rx="2" fill="none"/>
    </g>
    <g id="Rectangle_1792" data-name="Rectangle 1792" transform="translate(26.157 12.342)" fill="#707070" stroke="#707070" stroke-width="1">
      <rect width="5" height="7" rx="2.5" stroke="none"/>
      <rect x="0.5" y="0.5" width="4" height="6" rx="2" fill="none"/>
    </g>
  </g>
</svg>
