<svg id="Groupe_2089" data-name="Groupe 2089" xmlns="http://www.w3.org/2000/svg" width="156.013" height="156.013" viewBox="0 0 156.013 156.013">
  <path id="Tracé_8506" data-name="Tracé 8506" d="M132.946,23.067A77.389,77.389,0,0,0,78.006,0a78.006,78.006,0,1,0,78.006,78.006A77.387,77.387,0,0,0,132.946,23.067ZM78.006,137.425A59.4,59.4,0,0,1,30.014,42.995l83,82.912A58.256,58.256,0,0,1,78.006,137.425Zm47.9-24.408-82.913-83a59.4,59.4,0,0,1,94.431,47.992A58.256,58.256,0,0,1,125.907,113.017Z" fill="#926d39"/>
</svg>
