<svg id="closed" xmlns="http://www.w3.org/2000/svg" width="156.012" height="156.013" viewBox="0 0 156.012 156.013">
  <path id="Tracé_8502" data-name="Tracé 8502" d="M418.21,337.854h-4.1v19.832h4.1c2.6,0,4.139-1.459,4.139-4.534V342.388C422.349,339.313,420.811,337.854,418.21,337.854Z" transform="translate(-287.925 -234.905)" fill="#385542"/>
  <path id="Tracé_8503" data-name="Tracé 8503" d="M207.052,337.854c-2.6,0-4.1,1.419-4.1,4.534v11c0,3.114,1.5,4.534,4.1,4.534,2.563,0,4.14-1.419,4.14-4.534v-11C211.192,339.273,209.614,337.854,207.052,337.854Z" transform="translate(-141.109 -234.905)" fill="#385542"/>
  <path id="Tracé_8504" data-name="Tracé 8504" d="M139.2,140h-14.39L103.98,100.866a28.5,28.5,0,0,1-5.824,8.514L114.457,140h-72.9l16.3-30.624a28.5,28.5,0,0,1-5.824-8.515L31.2,140H16.81A16.829,16.829,0,0,0,0,156.815v52.518a16.829,16.829,0,0,0,16.81,16.81H139.2a16.829,16.829,0,0,0,16.81-16.81V156.815A16.829,16.829,0,0,0,139.2,140Zm-113.4,53.143c3.587,0,3.9-2.563,4.021-4.219.079-1.221,1.183-1.616,2.523-1.616,1.774,0,2.6.513,2.6,2.523,0,4.771-3.9,7.806-9.424,7.806-4.967,0-9.068-2.444-9.068-9.029v-11c0-6.585,4.14-9.03,9.108-9.03,5.481,0,9.384,2.918,9.384,7.492,0,2.05-.828,2.523-2.563,2.523-1.459,0-2.523-.434-2.563-1.616-.079-1.223-.355-3.9-4.1-3.9-2.641,0-4.139,1.458-4.139,4.534v11c0,3.076,1.5,4.534,4.219,4.534Zm27.361,4.259h-12.5c-1.143,0-2.247-.552-2.247-1.617V170.161c0-1.1,1.262-1.578,2.563-1.578,1.262,0,2.563.474,2.563,1.578v22.75h9.621c1.025,0,1.538,1.1,1.538,2.248C54.706,196.263,54.194,197.406,53.168,197.406Zm22.039-8.792c0,6.584-4.061,9.029-9.265,9.029s-9.226-2.444-9.226-9.029v-11c0-6.585,4.022-9.03,9.226-9.03s9.265,2.445,9.265,9.03Zm12.064,9.147c-5.165,0-9.108-2.6-9.108-4.889,0-1.1,1.025-2.76,2.247-2.76,1.617,0,2.682,3.036,6.7,3.036,2.365,0,4.415-1.064,4.415-3.43,0-5.914-12.656-4.1-12.656-13.445,0-5.875,5.047-7.886,9.58-7.886,2.326,0,7.492.552,7.492,3.154,0,.907-.631,2.72-2.05,2.72-1.222,0-2.129-1.5-5.442-1.5-2.837,0-4.455,1.144-4.455,3.036,0,4.889,12.657,3.194,12.657,13.406C96.656,194.844,92.713,197.761,87.271,197.761Zm24.011-16.8c1.025,0,1.616.986,1.616,2.05a1.784,1.784,0,0,1-1.616,1.972h-5.994v7.925h11.158c1.025,0,1.617,1.065,1.617,2.287,0,1.065-.513,2.208-1.617,2.208H102.41c-1.143,0-2.246-.552-2.246-1.617V170.2c0-1.065,1.1-1.617,2.246-1.617h14.037c1.1,0,1.617,1.144,1.617,2.209,0,1.222-.591,2.287-1.617,2.287H105.288v7.885h5.994Zm28.269,7.413c0,6.585-4.062,9.03-9.265,9.03h-6.979c-1.341,0-2.247-.75-2.247-1.577V170.162c0-.828.906-1.578,2.247-1.578h6.979c5.2,0,9.265,2.445,9.265,9.03Z" transform="translate(0 -70.131)" fill="#385542"/>
  <path id="Tracé_8505" data-name="Tracé 8505" d="M212.059,38.515A19.258,19.258,0,1,0,192.8,19.258,19.279,19.279,0,0,0,212.059,38.515Z" transform="translate(-134.052)" fill="#385542"/>
</svg>
