<svg xmlns="http://www.w3.org/2000/svg" width="192.701" height="160.736" viewBox="0 0 192.701 160.736">
  <path id="alert" d="M189.161,151.841,115.355,36.195a22.544,22.544,0,0,0-38.008,0L3.541,151.841a22.545,22.545,0,0,0,19.005,34.674h147.61a22.544,22.544,0,0,0,19-34.673Zm-92.81,15.207a12.289,12.289,0,1,1,12.289-12.289A12.288,12.288,0,0,1,96.351,167.048Zm17.033-85.394-6.052,40.751a10.98,10.98,0,0,1-21.7.139L79.058,81.874a17.368,17.368,0,1,1,34.291-5.542A17.885,17.885,0,0,1,113.384,81.654Z" transform="translate(0 -25.778)" fill="#926d39"/>
</svg>
