<svg id="maintenance" xmlns="http://www.w3.org/2000/svg" width="156.012" height="156.012" viewBox="0 0 156.012 156.012">
  <path id="Tracé_8500" data-name="Tracé 8500" d="M156.012,96.084V59.928H140.164a64.158,64.158,0,0,0-5.428-13.087L145.947,35.63,120.382,10.065,109.17,21.277a64.153,64.153,0,0,0-13.087-5.428V0H59.928V15.848a64.141,64.141,0,0,0-13.087,5.428L35.63,10.065,10.065,35.63,21.276,46.842a64.157,64.157,0,0,0-5.428,13.087H0V96.084H15.848a64.15,64.15,0,0,0,5.428,13.087L10.065,120.382,35.63,145.947l11.212-11.212a64.157,64.157,0,0,0,13.087,5.428v15.848H96.083V140.164a64.152,64.152,0,0,0,13.087-5.428l11.212,11.212,25.565-25.565L134.736,109.17a64.16,64.16,0,0,0,5.428-13.087ZM78.006,122.463a44.456,44.456,0,1,1,44.456-44.456A44.507,44.507,0,0,1,78.006,122.463Z" transform="translate(0)" fill="#b2b4b2"/>
  <path id="Tracé_8501" data-name="Tracé 8501" d="M175.478,140.158a35.32,35.32,0,1,0,35.32,35.32A35.36,35.36,0,0,0,175.478,140.158Zm24.1,29.868a13.219,13.219,0,0,1-14.845,2.653l-12.058,12.058a13.211,13.211,0,0,1-2.653,14.844l-3.38,3.38-6.461-6.461,3.38-3.38a4.053,4.053,0,0,0-5.732-5.731l-3.38,3.38-6.461-6.461,3.38-3.38a13.212,13.212,0,0,1,14.845-2.653l12.058-12.058a13.211,13.211,0,0,1,2.653-14.845l3.38-3.38,6.461,6.461-3.38,3.38a4.052,4.052,0,0,0,5.731,5.731l3.38-3.38,6.461,6.461Z" transform="translate(-97.472 -97.472)" fill="#b2b4b2"/>
</svg>
