<svg id="tea" xmlns="http://www.w3.org/2000/svg" width="77.709" height="72.853" viewBox="0 0 77.709 72.853">
  <path id="Tracé_8395" data-name="Tracé 8395" d="M202.534,217.036a1.518,1.518,0,0,1,0-3.036h0a1.518,1.518,0,1,1,0,3.036Zm0,0" transform="translate(-170.507 -181.52)"/>
  <path id="Tracé_8396" data-name="Tracé 8396" d="M240.533,21.249a1.519,1.519,0,0,1-1.359-.84,10.692,10.692,0,0,1-1-8.1,14.587,14.587,0,0,1,1-2.359,11.978,11.978,0,0,0,.815-1.882l0-.017a7.782,7.782,0,0,0-.819-5.85A1.518,1.518,0,1,1,241.889.839a10.692,10.692,0,0,1,1,8.1,14.533,14.533,0,0,1-1,2.359,12.057,12.057,0,0,0-.815,1.882l0,.017a7.784,7.784,0,0,0,.819,5.851,1.518,1.518,0,0,1-1.357,2.2Zm0,0" transform="translate(-201.677 0.001)"/>
  <path id="Tracé_8397" data-name="Tracé 8397" d="M172.723,55.177a1.517,1.517,0,0,1-1.333-.791,6.669,6.669,0,0,1-.318-6.587c.6-1.2,1.415-3.5.311-5.567a1.518,1.518,0,1,1,2.679-1.428,8.968,8.968,0,0,1-.285,8.374l-.025.048a3.745,3.745,0,0,0,.3,3.707,1.518,1.518,0,0,1-1.331,2.245Zm0,0" transform="translate(-144.492 -33.927)"/>
  <path id="Tracé_8398" data-name="Tracé 8398" d="M302.723,55.177a1.517,1.517,0,0,1-1.333-.791,6.668,6.668,0,0,1-.318-6.587c.6-1.2,1.415-3.5.311-5.567a1.518,1.518,0,1,1,2.679-1.428,8.968,8.968,0,0,1-.285,8.374l-.025.048a3.745,3.745,0,0,0,.3,3.707,1.518,1.518,0,0,1-1.331,2.245Zm0,0" transform="translate(-254.761 -33.927)"/>
  <path id="Tracé_8399" data-name="Tracé 8399" d="M74.675,197.944H51.74a26.243,26.243,0,0,0,11.2-11.745c3.465-.319,6.74-2.287,9.318-5.622a17.454,17.454,0,0,0,3.784-9.768,5.814,5.814,0,0,0-1.384-4.247c-1.573-1.543-4.064-1.5-7.834-1.429-.442.008-.912.017-1.406.023v-.6A4.559,4.559,0,0,0,60.863,160H16.848a4.559,4.559,0,0,0-4.553,4.553v10.624A25.618,25.618,0,0,0,19.873,193.4a26.014,26.014,0,0,0,6.1,4.543H3.036A3.039,3.039,0,0,0,0,200.98a7.6,7.6,0,0,0,7.589,7.589H70.121a7.6,7.6,0,0,0,7.589-7.589,3.039,3.039,0,0,0-3.036-3.036Zm-7.8-29.778c2.787-.05,4.987-.091,5.652.563A3.1,3.1,0,0,1,73,170.808c0,3.819-3.509,10.473-8.757,12.057a25.7,25.7,0,0,0,1.169-7.688V168.19C65.931,168.184,66.419,168.175,66.878,168.166Zm-44.859,23.09a22.6,22.6,0,0,1-6.689-16.078v-3.946H25.954a1.518,1.518,0,1,0,0-3.036H15.33v-3.643a1.52,1.52,0,0,1,1.518-1.518h29.6v5.4l-4.057,3.688a1.524,1.524,0,0,0-.5,1.123v11.039a1.518,1.518,0,0,0,1.518,1.518h9.107a1.518,1.518,0,0,0,1.518-1.518V173.245a1.524,1.524,0,0,0-.5-1.123l-4.057-3.688v-5.4H60.863a1.52,1.52,0,0,1,1.518,1.518v10.624A22.559,22.559,0,0,1,60.6,184s0,0,0,0c-.036.087-.072.173-.11.26a.109.109,0,0,0,0,.012,22.9,22.9,0,0,1-4.789,6.978,22.6,22.6,0,0,1-16.078,6.689H38.1a22.6,22.6,0,0,1-16.078-6.689Zm25.943-20.1L51,173.918v8.848H44.926v-8.848Zm22.159,34.376H7.589a4.559,4.559,0,0,1-4.553-4.553H74.675A4.559,4.559,0,0,1,70.121,205.533Zm0,0" transform="translate(-0.001 -135.716)"/>
</svg>
