<svg id="hotel-sign" xmlns="http://www.w3.org/2000/svg" width="73.574" height="72.853" viewBox="0 0 73.574 72.853">
  <path id="Tracé_8400" data-name="Tracé 8400" d="M60.547,196.21l3.235,2.875,4.153-4.672,4.153,4.672,3.235-2.875-3.851-4.333h4.4v-4.328H70.1V182.5H65.77v5.049H60v4.328h4.4Z" transform="translate(-51.344 -156.533)"/>
  <path id="Tracé_8401" data-name="Tracé 8401" d="M200.547,196.21l3.235,2.875,4.153-4.672,4.153,4.672,3.235-2.875-3.851-4.333h4.4v-4.328H210.1V182.5H205.77v5.049H200v4.328h4.4Z" transform="translate(-171.148 -156.533)"/>
  <path id="Tracé_8402" data-name="Tracé 8402" d="M135.771,332.5v5.049H130v4.328h4.4l-3.851,4.333,3.235,2.875,4.153-4.672,4.153,4.672,3.235-2.875-3.851-4.333h4.4v-4.328H140.1V332.5Z" transform="translate(-111.246 -284.893)"/>
  <path id="Tracé_8403" data-name="Tracé 8403" d="M275.771,332.5v5.049H270v4.328h4.4l-3.851,4.333,3.235,2.875,4.153-4.672,4.153,4.672,3.235-2.875-3.851-4.333h4.4v-4.328H280.1V332.5Z" transform="translate(-231.049 -284.893)"/>
  <path id="Tracé_8404" data-name="Tracé 8404" d="M340.547,196.21l3.235,2.875,4.153-4.672,4.153,4.672,3.235-2.875-3.851-4.333h4.4v-4.328H350.1V182.5H345.77v5.049H340v4.328h4.4Z" transform="translate(-290.951 -156.533)"/>
  <path id="Tracé_8405" data-name="Tracé 8405" d="M73.574,15.484V2.5H69.246V6.828H0v4.328H14.426v8.656H0V75.353H73.574V19.812h-13.7V11.156h9.377v4.328ZM69.246,71.025H4.328V24.139H69.246Zm-13.7-51.213H18.754V11.156H55.541Z" transform="translate(0 -2.5)"/>
</svg>
