<svg xmlns="http://www.w3.org/2000/svg" width="53.392" height="46.664" viewBox="0 0 53.392 46.664">
  <g id="pawprint" transform="translate(0)">
    <path id="Tracé_8286" data-name="Tracé 8286" d="M93.441,187.936a13,13,0,0,0-21.891,0l-5.789,9.031A8.229,8.229,0,0,0,76,208.941l.109-.048a16.176,16.176,0,0,1,12.881.048,8.184,8.184,0,0,0,3.3.7,8.288,8.288,0,0,0,1.842-.209,8.23,8.23,0,0,0,5.1-12.464Zm0,0" transform="translate(-57.737 -162.976)"/>
    <path id="Tracé_8287" data-name="Tracé 8287" d="M9.582,113.53a6.311,6.311,0,0,0,3.684-3.908A8.153,8.153,0,0,0,13.123,104a8.159,8.159,0,0,0-3.664-4.267A6.311,6.311,0,0,0,4.108,99.3C.649,100.63-.939,104.9.57,108.831a7.624,7.624,0,0,0,6.857,5.1,5.977,5.977,0,0,0,2.156-.4Zm0,0" transform="translate(0 -88.582)"/>
    <path id="Tracé_8288" data-name="Tracé 8288" d="M132.256,17.873c4.324,0,7.843-4.008,7.843-8.935S136.58,0,132.256,0s-7.842,4.009-7.842,8.937S127.932,17.873,132.256,17.873Zm0,0" transform="translate(-111.44 0)"/>
    <path id="Tracé_8289" data-name="Tracé 8289" d="M288.918,56.123h0a6.392,6.392,0,0,0,2.02.326,8.128,8.128,0,0,0,7.4-5.823,8.763,8.763,0,0,0-.125-6.045,6.629,6.629,0,0,0-9.829-3.267,8.764,8.764,0,0,0-3.719,4.768C283.242,50.365,285.15,54.87,288.918,56.123Zm0,0" transform="translate(-254.558 -36.055)"/>
    <path id="Tracé_8290" data-name="Tracé 8290" d="M388.325,172.241h0c-2.982-2.2-7.442-1.248-9.943,2.13s-2.108,7.923.87,10.127a6.131,6.131,0,0,0,3.682,1.189,7.929,7.929,0,0,0,6.262-3.317C391.693,178.99,391.3,174.447,388.325,172.241Zm0,0" transform="translate(-337.449 -153.217)"/>
  </g>
</svg>
