<svg id="reception" xmlns="http://www.w3.org/2000/svg" width="53.392" height="53.392" viewBox="0 0 53.392 53.392">
  <path id="Tracé_8291" data-name="Tracé 8291" d="M51.676,451.337H50.523l-.736-2.942a.521.521,0,0,0-.506-.395H4.11a.521.521,0,0,0-.506.395l-.735,2.942H1.715A1.7,1.7,0,0,0,0,452.925a1.669,1.669,0,0,0,1.667,1.749H51.724a1.669,1.669,0,0,0,1.667-1.749,1.7,1.7,0,0,0-1.714-1.588Z" transform="translate(0 -401.282)"/>
  <path id="Tracé_8292" data-name="Tracé 8292" d="M65.567,107.337h2.456v2.573a20.048,20.048,0,0,0-18.354,19.952v.834A1.668,1.668,0,0,0,48,132.444a1.7,1.7,0,0,0,1.713,1.589h4.959v1.981a.521.521,0,0,0,.521.521h28.99a.521.521,0,0,0,.521-.521v-1.981h4.959a1.7,1.7,0,0,0,1.713-1.589,1.668,1.668,0,0,0-1.667-1.748v-.834A20.048,20.048,0,0,0,71.359,109.91v-2.573h2.456a1.7,1.7,0,0,0,1.714-1.588A1.669,1.669,0,0,0,73.862,104H65.519a1.669,1.669,0,0,0-1.667,1.749A1.7,1.7,0,0,0,65.567,107.337Z" transform="translate(-42.995 -93.155)"/>
  <path id="Tracé_8293" data-name="Tracé 8293" d="M1.669,243.337H5.006a1.668,1.668,0,1,0,0-3.337H1.669a1.668,1.668,0,1,0,0,3.337Z" transform="translate(0 -214.972)"/>
  <path id="Tracé_8294" data-name="Tracé 8294" d="M449.668,243.337h3.337a1.668,1.668,0,1,0,0-3.337h-3.337a1.668,1.668,0,0,0,0,3.337Z" transform="translate(-401.282 -214.972)"/>
  <path id="Tracé_8295" data-name="Tracé 8295" d="M73.142,75.5a1.668,1.668,0,1,0,2.36-2.36l-2.36-2.36a1.668,1.668,0,0,0-2.36,2.36Z" transform="translate(-62.963 -62.963)"/>
  <path id="Tracé_8296" data-name="Tracé 8296" d="M388.731,75.992a1.664,1.664,0,0,0,1.18-.489l2.36-2.36a1.668,1.668,0,1,0-2.36-2.36l-2.36,2.36a1.67,1.67,0,0,0,1.18,2.848Z" transform="translate(-346.697 -62.965)"/>
  <path id="Tracé_8297" data-name="Tracé 8297" d="M241.669,6.674a1.668,1.668,0,0,0,1.668-1.669V1.669a1.668,1.668,0,1,0-3.337,0V5.006A1.669,1.669,0,0,0,241.669,6.674Z" transform="translate(-214.972 0)"/>
</svg>
