<svg id="shampoo_1_" data-name="shampoo (1)" xmlns="http://www.w3.org/2000/svg" width="53.392" height="64.817" viewBox="0 0 53.392 64.817">
  <path id="Tracé_8298" data-name="Tracé 8298" d="M109.989,98.9a1.9,1.9,0,0,0-1.9-1.9H92.9A1.9,1.9,0,0,0,91,98.9v3.8h18.989Z" transform="translate(-85.936 -84.72)"/>
  <path id="Tracé_8299" data-name="Tracé 8299" d="M102.9,3.8h1.582V8.482h9.495V3.8h4.364l1.968,2.952a1.9,1.9,0,0,0,3.16-2.107l-2.532-3.8A1.9,1.9,0,0,0,119.356,0H102.9a1.9,1.9,0,1,0,0,3.8Z" transform="translate(-94.67 0)"/>
  <path id="Tracé_8300" data-name="Tracé 8300" d="M51,307H63.66v15.191H51Z" transform="translate(-51 -268.135)"/>
  <path id="Tracé_8301" data-name="Tracé 8301" d="M82.3,172.942A1.9,1.9,0,0,0,80.656,172H52.9a1.9,1.9,0,0,0-1.9,1.9v3.8H84.7A44.932,44.932,0,0,0,82.3,172.942Z" transform="translate(-51 -150.226)"/>
  <ellipse id="Ellipse_38" data-name="Ellipse 38" cx="7.416" cy="5.932" rx="7.416" ry="5.932" transform="translate(38.561 32.468)"/>
  <path id="Tracé_8302" data-name="Tracé 8302" d="M71.255,265.989a12.021,12.021,0,0,1,16.363-11.215,34.412,34.412,0,0,0-1.5-7.774H51v3.8H63.66a3.8,3.8,0,0,1,3.8,3.8v15.191a3.8,3.8,0,0,1-3.8,3.8H51v5.064a1.9,1.9,0,0,0,1.9,1.9H78.218a1.9,1.9,0,0,0,1.55-.8q.68-.962,1.3-1.934A12.046,12.046,0,0,1,71.255,265.989Z" transform="translate(-51 -215.731)"/>
  <path id="Tracé_8303" data-name="Tracé 8303" d="M256.875,337.188a8.228,8.228,0,1,0-7.646,11.269,7.147,7.147,0,0,0,.928-.062,6.892,6.892,0,0,0,5.4,2.594,6.963,6.963,0,0,0,1.316-13.8Z" transform="translate(-216.947 -289.97)"/>
</svg>
