<svg id="towel-rack_1_" data-name="towel-rack (1)" xmlns="http://www.w3.org/2000/svg" width="55.378" height="85.671" viewBox="0 0 55.378 85.671">
  <path id="Tracé_8379" data-name="Tracé 8379" d="M101.822,64.908a1.255,1.255,0,1,0-2.492-.294l-.9,7.65-4.879-2.573a.971.971,0,0,1-.406-1.311l7.394-14.019-.566,4.8a1.255,1.255,0,1,0,2.492.294l2.121-18.011a1.264,1.264,0,0,0,.009-.147,5.38,5.38,0,0,1,5.374-5.374h17.7a5.38,5.38,0,0,1,5.374,5.374,1.264,1.264,0,0,0,.009.147l2.608,22.141a1.255,1.255,0,0,0,1.245,1.108,1.273,1.273,0,0,0,.148-.009,1.255,1.255,0,0,0,1.1-1.393l-1.368-11.61a27.309,27.309,0,0,0-9.83-46.357A9.1,9.1,0,0,0,118.687,0H118.5a9.1,9.1,0,0,0-8.269,5.329,27.511,27.511,0,0,0-13.594,9.764,1.255,1.255,0,1,0,2.017,1.494,25.017,25.017,0,0,1,10.8-8.311c-.024.267-.038.537-.038.81v.182a9.035,9.035,0,0,0,.7,3.485,20.415,20.415,0,0,0-8.243,30.277l-.7,5.933a24.815,24.815,0,0,1-5.2-27.8,1.255,1.255,0,0,0-2.289-1.03,27.326,27.326,0,0,0,5.85,30.747L90.923,67.21a3.48,3.48,0,0,0,1.455,4.7l5.735,3.024-.2,1.727a8.188,8.188,0,0,0,5.737,8.815,5.333,5.333,0,0,0,1.466.194,5.661,5.661,0,0,0,4.308-2.055,3.1,3.1,0,0,1,5.088,0,5.544,5.544,0,0,0,8.617,0,3.1,3.1,0,0,1,5.089,0,5.663,5.663,0,0,0,4.309,2.055,5.357,5.357,0,0,0,1.464-.193,8.176,8.176,0,0,0,5.741-8.806l-.94-7.978a1.255,1.255,0,1,0-2.492.294l.94,7.978a5.646,5.646,0,0,1-3.935,6.1,2.823,2.823,0,0,1-.777.1,3.257,3.257,0,0,1-2.545-1.331,5.544,5.544,0,0,0-8.617,0,3.1,3.1,0,0,1-5.089,0,5.544,5.544,0,0,0-8.617,0,3.256,3.256,0,0,1-2.544,1.33,2.8,2.8,0,0,1-.775-.1,5.658,5.658,0,0,1-3.935-6.108Zm36.549-48.537a24.792,24.792,0,0,1-1.954,32.187l-.717-6.091a20.417,20.417,0,0,0-8.624-29.715,9.036,9.036,0,0,0,.7-3.485V9.085c0-.273-.014-.543-.038-.81a25.046,25.046,0,0,1,10.637,8.1ZM118.5,2.51h.182a6.583,6.583,0,0,1,6.576,6.575v.182a6.583,6.583,0,0,1-6.576,6.575H118.5a6.583,6.583,0,0,1-6.576-6.575V9.085A6.583,6.583,0,0,1,118.5,2.51ZM103.948,21.027a17.872,17.872,0,0,1,7.457-6.1,9.071,9.071,0,0,0,7.1,3.426h.182a9.071,9.071,0,0,0,7.1-3.426,17.921,17.921,0,0,1,9.236,23.533,7.9,7.9,0,0,0-7.352-5.042h-17.7a7.9,7.9,0,0,0-7.545,5.6,17.93,17.93,0,0,1,1.525-17.993Z" transform="translate(-90.52 0)"/>
  <path id="Tracé_8380" data-name="Tracé 8380" d="M199.96,277.316l-1.785,21.418a1.255,1.255,0,0,0,1.146,1.355c.035,0,.071,0,.106,0a1.255,1.255,0,0,0,1.249-1.151l1.785-21.418a1.255,1.255,0,1,0-2.5-.208Z" transform="translate(-180.158 -229.955)"/>
  <path id="Tracé_8381" data-name="Tracé 8381" d="M298.716,329.5a1.255,1.255,0,0,0-1.213,1.3l.558,16.844a1.255,1.255,0,0,0,1.253,1.213h.042a1.255,1.255,0,0,0,1.213-1.3l-.558-16.844A1.259,1.259,0,0,0,298.716,329.5Z" transform="translate(-262.869 -274.367)"/>
</svg>
