<svg id="weather" xmlns="http://www.w3.org/2000/svg" width="53.392" height="53.392" viewBox="0 0 53.392 53.392">
  <path id="Tracé_8278" data-name="Tracé 8278" d="M146.774,25.133h-2.431l1.192-2.064a1.564,1.564,0,1,0-2.709-1.564l-2.095,3.628H125.419l10.827-10.827,4.047,1.084a1.564,1.564,0,1,0,.81-3.022l-2.3-.617,1.572-1.572a1.564,1.564,0,0,0-2.212-2.212l-1.572,1.572-.617-2.3a1.564,1.564,0,1,0-3.022.81l1.084,4.047L123.207,22.921V7.609l3.628-2.095A1.564,1.564,0,0,0,125.271,2.8L123.207,4V1.565a1.564,1.564,0,1,0-3.128,0v9.568a15.643,15.643,0,0,0,0,31.129v9.568a1.564,1.564,0,1,0,3.128,0V49.4l2.064,1.192a1.564,1.564,0,0,0,1.564-2.709l-3.628-2.095V30.473L134.034,41.3l-1.084,4.047a1.564,1.564,0,1,0,3.022.81l.617-2.3,1.572,1.572a1.564,1.564,0,1,0,2.212-2.212L138.8,41.643l2.3-.617a1.564,1.564,0,1,0-.81-3.022l-4.047,1.084L125.419,28.261h15.312l2.095,3.628a1.564,1.564,0,1,0,2.709-1.564l-1.192-2.064h2.431a1.564,1.564,0,0,0,0-3.128ZM109.129,26.7a12.532,12.532,0,0,1,10.95-12.416V39.113A12.532,12.532,0,0,1,109.129,26.7Z" transform="translate(-94.946 -0.001)"/>
  <path id="Tracé_8279" data-name="Tracé 8279" d="M8.14,242.564A1.564,1.564,0,0,0,6.575,241H1.564a1.564,1.564,0,1,0,0,3.128H6.575A1.564,1.564,0,0,0,8.14,242.564Z" transform="translate(0 -215.868)"/>
  <path id="Tracé_8280" data-name="Tracé 8280" d="M74.589,76.8A1.564,1.564,0,0,0,76.8,74.588l-3.543-3.544a1.564,1.564,0,0,0-2.212,2.212Z" transform="translate(-63.226 -63.226)"/>
  <path id="Tracé_8281" data-name="Tracé 8281" d="M74.589,377.892l-3.543,3.543a1.564,1.564,0,1,0,2.212,2.212L76.8,380.1a1.564,1.564,0,1,0-2.212-2.212Z" transform="translate(-63.226 -338.075)"/>
  <path id="Tracé_8282" data-name="Tracé 8282" d="M152.666,24.358a1.564,1.564,0,0,0,2.9-1.173l-1.878-4.646a1.564,1.564,0,1,0-2.9,1.173Z" transform="translate(-134.961 -15.73)"/>
  <path id="Tracé_8283" data-name="Tracé 8283" d="M25.223,314.286a1.564,1.564,0,0,0-2.036-.864L18.541,315.3a1.564,1.564,0,1,0,1.173,2.9l4.646-1.878A1.564,1.564,0,0,0,25.223,314.286Z" transform="translate(-15.731 -280.636)"/>
  <path id="Tracé_8284" data-name="Tracé 8284" d="M153.665,419.648a1.564,1.564,0,0,0-2.041.854l-1.9,4.637a1.564,1.564,0,1,0,2.895,1.186l1.9-4.637A1.564,1.564,0,0,0,153.665,419.648Z" transform="translate(-134.005 -375.782)"/>
  <path id="Tracé_8285" data-name="Tracé 8285" d="M18.968,152.62l4.637,1.9a1.564,1.564,0,1,0,1.186-2.895l-4.637-1.9a1.564,1.564,0,0,0-1.186,2.895Z" transform="translate(-16.12 -134.007)"/>
</svg>
