<svg id="wifi_1_" data-name="wifi (1)" xmlns="http://www.w3.org/2000/svg" width="53.392" height="40.619" viewBox="0 0 53.392 40.619">
  <g id="Groupe_578" data-name="Groupe 578" transform="translate(22.057 31.395)">
    <g id="Groupe_577" data-name="Groupe 577" transform="translate(0 0)">
      <path id="Tracé_8274" data-name="Tracé 8274" d="M214.144,358.88a4.612,4.612,0,1,0,4.629,4.611A4.625,4.625,0,0,0,214.144,358.88Z" transform="translate(-209.516 -358.88)"/>
    </g>
  </g>
  <g id="Groupe_580" data-name="Groupe 580" transform="translate(14.508 20.441)">
    <g id="Groupe_579" data-name="Groupe 579" transform="translate(0 0)">
      <path id="Tracé_8275" data-name="Tracé 8275" d="M161.276,259.5a15.987,15.987,0,0,0-22.555-.03,3.115,3.115,0,0,0,4.407,4.4,9.732,9.732,0,0,1,13.73.017,3.114,3.114,0,1,0,4.418-4.39Z" transform="translate(-137.807 -254.833)"/>
    </g>
  </g>
  <g id="Groupe_582" data-name="Groupe 582" transform="translate(0 0)">
    <g id="Groupe_581" data-name="Groupe 581" transform="translate(0 0)">
      <path id="Tracé_8276" data-name="Tracé 8276" d="M52.481,71.32A36.557,36.557,0,0,0,.913,71.294a3.114,3.114,0,0,0,4.41,4.4,30.3,30.3,0,0,1,42.744.021,3.114,3.114,0,1,0,4.414-4.394Z" transform="translate(0 -60.665)"/>
    </g>
  </g>
  <g id="Groupe_584" data-name="Groupe 584" transform="translate(7.435 10.479)">
    <g id="Groupe_583" data-name="Groupe 583">
      <path id="Tracé_8277" data-name="Tracé 8277" d="M108.237,167.786a26.011,26.011,0,0,0-36.693-.026,3.114,3.114,0,0,0,4.409,4.4,19.754,19.754,0,0,1,27.869.02,3.114,3.114,0,1,0,4.415-4.394Z" transform="translate(-70.628 -160.2)"/>
    </g>
  </g>
</svg>
