<svg xmlns="http://www.w3.org/2000/svg" width="104" height="108" viewBox="0 0 104 108">
  <g id="Group_959" data-name="Group 959" transform="translate(-988 -1721)">
    <g id="indian-food" transform="translate(1007 1721)">
      <path id="Path_8463" data-name="Path 8463" d="M49.02,40.778a4.69,4.69,0,0,0-.893-2.683l1.233-2.043a.972.972,0,0,0-1.664-1l-1.189,1.969a5.136,5.136,0,0,0-3.98.711,5.7,5.7,0,0,0-2.318,3.743,7.422,7.422,0,0,1-1.319,2.916,7.219,7.219,0,0,1-4.175,2.286,1.476,1.476,0,0,0-.476,2.689A9.833,9.833,0,0,0,39.677,50.9a9.623,9.623,0,0,0,6.088-2.567A9.9,9.9,0,0,0,48.865,43,9.516,9.516,0,0,0,49.02,40.778Zm-2.064,1.868a8.125,8.125,0,0,1-7.346,6.315,7.364,7.364,0,0,1-3.328-.7A8.5,8.5,0,0,0,40.4,45.615,9.227,9.227,0,0,0,42.079,42c.336-1.189.579-2.048,1.5-2.635a2.826,2.826,0,0,1,2.772-.306c.784.535.87,2.187.608,3.587Zm-23-23.624a.972.972,0,1,0,.972.972A.972.972,0,0,0,23.955,19.022Zm4.109-8.043a.972.972,0,1,0-.972.972A.972.972,0,0,0,28.064,10.979ZM56.622,9.715A33.169,33.169,0,0,0,9.715,56.622,33.169,33.169,0,0,0,56.622,9.715ZM55.248,55.248A31.225,31.225,0,0,1,11.089,11.089,31.225,31.225,0,0,1,55.248,55.248ZM23.72,28.47a.972.972,0,1,0-.972-.972A.972.972,0,0,0,23.72,28.47Zm-1.487-13.6a.972.972,0,1,0-.972.972A.972.972,0,0,0,22.234,14.866ZM23.955,34.3a.972.972,0,1,0,.972-.972A.972.972,0,0,0,23.955,34.3ZM19.318,23.82a.972.972,0,1,0-.972.972A.972.972,0,0,0,19.318,23.82ZM57.68,21.726a11.4,11.4,0,0,0-10.569-11.3,1.618,1.618,0,0,0-1.727,1.545,24.214,24.214,0,0,0-5.61-2.36,3.308,3.308,0,0,0-.8-2.852A3.262,3.262,0,0,0,36.443,5.7a17.28,17.28,0,0,0-4.525.783A3.262,3.262,0,0,0,29.663,5.7,17.436,17.436,0,0,0,13.516,18.6,24.251,24.251,0,0,0,8.7,33.169a24.508,24.508,0,0,0,5.227,15.112,9.058,9.058,0,0,0,14.75,8.94A24.534,24.534,0,0,0,45,54.586a.972.972,0,0,0-.941-1.7,22.538,22.538,0,0,1-10.893,2.8,22.785,22.785,0,0,1-2.947-.192,9.061,9.061,0,1,0-15.475-9.376A22.552,22.552,0,0,1,12.918,23.3a17.355,17.355,0,0,0,1.624,7.187.972.972,0,0,0,1.761-.821A15.5,15.5,0,0,1,29.737,7.646,1.319,1.319,0,0,1,31.1,9.107l-3.423,27.8a1.277,1.277,0,0,1-.573.924A1.325,1.325,0,0,1,26,38a15.423,15.423,0,0,1-7.3-4.663.972.972,0,1,0-1.462,1.28,17.363,17.363,0,0,0,8.222,5.249,3.273,3.273,0,0,0,2.714-.407,3.238,3.238,0,0,0,.889-.873,17.358,17.358,0,0,0,3.178,1.279,3.273,3.273,0,0,0,2.713-.406,3.233,3.233,0,0,0,1.433-2.309l3.15-25.588a22.309,22.309,0,0,1,5.846,2.682V31.412a1.622,1.622,0,0,0,1.731,1.617A11.486,11.486,0,0,0,55.25,28.72,22.556,22.556,0,0,1,47.669,50.4a.972.972,0,0,0,1.252,1.486,24.5,24.5,0,0,0,7.755-25.512,11.243,11.243,0,0,0,1-4.649ZM22.749,43.254a7.121,7.121,0,1,1-7.121,7.121A7.129,7.129,0,0,1,22.749,43.254ZM37.878,9.108l-3.423,27.8a1.276,1.276,0,0,1-.573.923,1.325,1.325,0,0,1-1.1.164,15.411,15.411,0,0,1-3.122-1.3L33.027,9.345a3.238,3.238,0,0,0-.063-1.139,15.346,15.346,0,0,1,3.554-.559,1.328,1.328,0,0,1,1.028.425,1.278,1.278,0,0,1,.332,1.036Zm9.446,3.283a9.3,9.3,0,0,1,4.5,1.715l-4.5,5.063Zm0,18.67V24.283l4.5,5.063A9.3,9.3,0,0,1,47.324,31.061Zm5.948-3.006L48.515,22.7h7.17a9.375,9.375,0,0,1-2.413,5.357Zm-4.757-7.3L53.272,15.4a9.375,9.375,0,0,1,2.413,5.357Z" fill="#926d39"/>
    </g>
    <text id="Cuisine_type" data-name="Cuisine type" transform="translate(1040 1823)" fill="#926d39" font-size="16" font-family="Poppins-SemiBold, Poppins" font-weight="600"><tspan x="-51.904" y="0">CUISINE TYPE</tspan></text>
  </g>
</svg>
