<svg xmlns="http://www.w3.org/2000/svg" width="99" height="108" viewBox="0 0 99 108">
  <g id="Groupe_960" data-name="Groupe 960" transform="translate(-1278 -1675)">
    <text id="Dress_Code" data-name="Dress Code" transform="translate(1278 1777)" fill="#926d39" font-size="16" font-family="Poppins-SemiBold, Poppins" font-weight="600"><tspan x="0" y="0">DRESS CODE</tspan></text>
    <g id="suit" transform="translate(1299 1675.001)">
      <path id="Tracé_8464" data-name="Tracé 8464" d="M0,62.142a3.945,3.945,0,0,0,3.94,3.94H52.2a3.945,3.945,0,0,0,3.94-3.94V40.87a1.314,1.314,0,0,0-2.627,0v2.663H42.065a2.63,2.63,0,0,0-2.627,2.627v17.3H29.382l-.021-41.116,8.573,5.989a2.654,2.654,0,0,0,4.131-2.153V12.567H52.2a1.315,1.315,0,0,1,1.313,1.313v16.73a1.314,1.314,0,0,0,2.627,0V13.881A3.944,3.944,0,0,0,52.2,9.94H41.92a11.761,11.761,0,0,0-4.073-6.218A15.169,15.169,0,0,0,28.069,0,15.194,15.194,0,0,0,18.3,3.716,11.715,11.715,0,0,0,14.212,9.94H3.94A3.945,3.945,0,0,0,0,13.881ZM28.056,18.237,17.788,11.254a23.648,23.648,0,0,1,5.836-2.309,18.337,18.337,0,0,1,14.8,2.42Zm.013-15.611a12.713,12.713,0,0,1,8.075,3.1,11.419,11.419,0,0,1,2.279,2.6A21.184,21.184,0,0,0,23,6.394a26.1,26.1,0,0,0-5.3,1.942A11.432,11.432,0,0,1,20,5.719a12.739,12.739,0,0,1,8.071-3.093ZM14.078,53.495H2.627V46.16h11.45v7.335ZM3.94,63.456a1.315,1.315,0,0,1-1.313-1.313V56.121h11.45v7.335Zm38.125-17.3H53.515v7.335H42.065Zm0,9.961H53.515v6.021A1.315,1.315,0,0,1,52.2,63.456H42.065ZM25.681,19.8a1.313,1.313,0,0,0,1.053,2.367l.021,41.29H16.7v-17.3a2.63,2.63,0,0,0-2.627-2.627H2.627V13.881A1.315,1.315,0,0,1,3.94,12.567H14.077v13.6a2.627,2.627,0,0,0,4.133,2.152L18.675,28a1.314,1.314,0,0,0-1.507-2.152l-.464.325V13.694Zm4.7.049,9.057-6V26.174Zm0,0" transform="translate(0 0)" fill="#926d39"/>
      <path id="Tracé_8465" data-name="Tracé 8465" d="M245.4,245.124a1.314,1.314,0,1,0-.042,1.9,1.33,1.33,0,0,0,.042-1.9Zm0,0" transform="translate(-211.78 -213.158)" fill="#926d39"/>
      <path id="Tracé_8466" data-name="Tracé 8466" d="M415.943,266.68a1.313,1.313,0,1,0,1.311,1.371A1.329,1.329,0,0,0,415.943,266.68Zm0,0" transform="translate(-361.114 -232.261)" fill="#926d39"/>
      <path id="Tracé_8467" data-name="Tracé 8467" d="M162.685,175.1A1.313,1.313,0,1,0,164,176.469,1.329,1.329,0,0,0,162.685,175.1Zm0,0" transform="translate(-140.543 -152.499)" fill="#926d39"/>
      <path id="Tracé_8468" data-name="Tracé 8468" d="M245.4,284.763a1.314,1.314,0,1,0-.043,1.9,1.33,1.33,0,0,0,.043-1.9C245.155,284.519,245.645,285.008,245.4,284.763Zm0,0" transform="translate(-211.779 -247.681)" fill="#926d39"/>
      <path id="Tracé_8469" data-name="Tracé 8469" d="M245.4,324.4a1.313,1.313,0,1,0-.042,1.9,1.327,1.327,0,0,0,.042-1.9Zm0,0" transform="translate(-211.779 -282.199)" fill="#926d39"/>
      <path id="Tracé_8470" data-name="Tracé 8470" d="M245.4,364.043a1.313,1.313,0,1,0-.042,1.9,1.327,1.327,0,0,0,.042-1.9C245.155,363.8,245.644,364.287,245.4,364.043Zm0,0" transform="translate(-211.779 -316.727)" fill="#926d39"/>
      <path id="Tracé_8471" data-name="Tracé 8471" d="M245.4,403.677a1.313,1.313,0,1,0-.042,1.9,1.328,1.328,0,0,0,.042-1.9C245.155,403.433,245.644,403.922,245.4,403.677Zm0,0" transform="translate(-211.779 -351.246)" fill="#926d39"/>
      <path id="Tracé_8472" data-name="Tracé 8472" d="M244.427,442.895a1.313,1.313,0,1,0,1.311,1.371A1.328,1.328,0,0,0,244.427,442.895Zm0,0" transform="translate(-211.735 -385.732)" fill="#926d39"/>
    </g>
  </g>
</svg>
