<svg xmlns="http://www.w3.org/2000/svg" width="152" height="108" viewBox="0 0 152 108">
  <g id="Groupe_961" data-name="Groupe 961" transform="translate(-1425 -1675)">
    <text id="Outdoor_seating" data-name="Outdoor seating" transform="translate(1501 1777)" fill="#926d39" font-size="16" font-family="Poppins-SemiBold, Poppins" font-weight="600"><tspan x="-75.52" y="0">OUTDOOR SEATING</tspan></text>
    <g id="cafe" transform="translate(1431.001 1659.006)">
      <path id="Tracé_8507" data-name="Tracé 8507" d="M68.077,316.547a1.1,1.1,0,0,0,1.1-1.1v-9.464a4.815,4.815,0,0,0-4.81-4.81H62.588V293.49A5.5,5.5,0,0,0,57.1,288a1.1,1.1,0,0,0-1.1,1.1v26.351a1.1,1.1,0,1,0,2.2,0v-7.686H66.98v7.686A1.1,1.1,0,0,0,68.077,316.547ZM60.392,293.49v7.686H58.2V290.384A3.3,3.3,0,0,1,60.392,293.49Zm-2.2,12.078v-2.2h6.17a2.618,2.618,0,0,1,2.58,2.2Z" transform="translate(-13.805 -234.675)" fill="#926d39"/>
      <path id="Tracé_8508" data-name="Tracé 8508" d="M372.077,316.547a1.1,1.1,0,0,0,1.1-1.1V289.1a1.1,1.1,0,0,0-1.1-1.1,5.5,5.5,0,0,0-5.49,5.49v7.686H364.81a4.815,4.815,0,0,0-4.81,4.81v9.464a1.1,1.1,0,1,0,2.2,0v-7.686h8.784v7.686A1.1,1.1,0,0,0,372.077,316.547Zm-3.294-23.057a3.3,3.3,0,0,1,2.2-3.106v10.791h-2.2Zm-3.974,9.882h6.17v2.2h-8.75A2.618,2.618,0,0,1,364.81,303.371Z" transform="translate(-276.083 -234.675)" fill="#926d39"/>
      <path id="Tracé_8509" data-name="Tracé 8509" d="M98.191,46.737a1.1,1.1,0,0,0,1.1-1.1,29.645,29.645,0,0,0-59.29,0,1.1,1.1,0,1,0,2.2,0c0-1.6,2.822-3.294,5.49-3.294,2.422,0,4.392,1.478,4.392,3.294a1.1,1.1,0,1,0,2.2,0c0-1.816,1.97-3.294,4.392-3.294s4.392,1.478,4.392,3.294a1.1,1.1,0,1,0,2.2,0c0-1.532,1.4-2.823,3.294-3.19V62.109H56.469a1.1,1.1,0,0,0,0,2.2H68.546V79.676H65.252a1.1,1.1,0,1,0,0,2.2h8.784a1.1,1.1,0,1,0,0-2.2H70.742V64.3H82.82a1.1,1.1,0,0,0,0-2.2H70.742V42.45c1.892.367,3.294,1.657,3.294,3.19a1.1,1.1,0,1,0,2.2,0c0-1.816,1.97-3.294,4.392-3.294s4.392,1.478,4.392,3.294a1.1,1.1,0,1,0,2.2,0c0-1.816,1.97-3.294,4.392-3.294,2.668,0,5.49,1.693,5.49,3.294A1.1,1.1,0,0,0,98.191,46.737ZM47.685,40.15A9.842,9.842,0,0,0,42.671,41.6q-.1.063-.2.128a27.531,27.531,0,0,1,18.693-22.2,19.83,19.83,0,0,0-1.783,1.636c-4.511,4.672-6.94,11.543-7.229,20.442a7.329,7.329,0,0,0-4.468-1.46Zm10.98,0a7.363,7.363,0,0,0-4.309,1.344c.3-8.244,2.516-14.564,6.607-18.8a16.656,16.656,0,0,1,5.028-3.6c-1.321,3.157-2.753,9.559-2.877,22.5A7.334,7.334,0,0,0,58.665,40.15Zm10.98,0a7.358,7.358,0,0,0-4.335,1.363c.084-8.348.72-14.781,1.9-19.139A10.911,10.911,0,0,1,69,18.2q.323-.008.647-.008.348,0,.695.009a10.919,10.919,0,0,1,1.792,4.173c1.177,4.363,1.813,10.808,1.9,19.173A7.347,7.347,0,0,0,69.644,40.15Zm10.98,0a7.344,7.344,0,0,0-4.4,1.41C76.1,28.645,74.665,22.252,73.345,19.1a16.657,16.657,0,0,1,5.028,3.6c4.1,4.243,6.315,10.574,6.608,18.835a7.352,7.352,0,0,0-4.357-1.379ZM96.617,41.6A9.842,9.842,0,0,0,91.6,40.15a7.339,7.339,0,0,0-4.423,1.426c-.295-8.882-2.722-15.742-7.228-20.408A19.839,19.839,0,0,0,78.2,19.557,27.532,27.532,0,0,1,96.816,41.732Q96.718,41.667,96.617,41.6Z" transform="translate(0 0)" fill="#926d39"/>
    </g>
  </g>
</svg>
